<svg width="104" height="28" viewBox="0 0 104 28" fill="none" xmlns="http://www.w3.org/2000/svg">
<g opacity="0.4">
<path fill-rule="evenodd" clip-rule="evenodd" d="M16.4109 3.75186L16.4119 4.57738C19.1665 4.81513 20.9862 6.88222 20.9891 10.0522L21 19.331C21.0039 22.7872 19.0322 24.9137 15.8718 24.9192L8.15188 24.9302C5.01119 24.9346 3.01482 22.7575 3.01087 19.2914L3.00001 10.1216C2.99606 6.93065 4.75153 4.86906 7.50617 4.59059L7.50518 3.76507C7.5042 3.28076 7.83001 2.91644 8.26444 2.91644C8.69886 2.91533 9.02468 3.27856 9.02567 3.76287L9.02666 4.53335L14.8914 4.52454L14.8904 3.75406C14.8894 3.26976 15.2152 2.90653 15.6497 2.90543C16.0742 2.90433 16.4099 3.26756 16.4109 3.75186ZM4.52146 10.4617L19.4696 10.4396V10.0544C19.4272 7.68792 18.349 6.44634 16.4138 6.26143L16.4148 7.10896C16.4148 7.58226 16.0801 7.95759 15.6556 7.95759C15.2211 7.95869 14.8943 7.58446 14.8943 7.11116L14.8933 6.2196L9.02862 6.22841L9.0296 7.11887C9.0296 7.59326 8.70477 7.9675 8.27035 7.9675C7.83592 7.9686 7.50912 7.59547 7.50912 7.12107L7.50813 6.27354C5.58284 6.48597 4.51751 7.73195 4.52048 10.1193L4.52146 10.4617ZM15.2399 15.4643V15.4764C15.2498 15.9827 15.625 16.3669 16.0801 16.3559C16.5244 16.3438 16.8789 15.9244 16.869 15.4181C16.8483 14.9338 16.4918 14.5386 16.0485 14.5397C15.5943 14.5507 15.2389 14.958 15.2399 15.4643ZM16.0554 20.4064C15.6013 20.3954 15.235 19.9782 15.234 19.4719C15.2241 18.9656 15.5884 18.5462 16.0426 18.5341H16.0525C16.5165 18.5341 16.8927 18.9513 16.8927 19.4686C16.8937 19.9859 16.5185 20.4053 16.0554 20.4064ZM11.1721 15.4819C11.1919 15.9882 11.568 16.3834 12.0222 16.3614C12.4665 16.3382 12.821 15.92 12.8012 15.4137C12.7903 14.9184 12.425 14.5331 11.9807 14.5342C11.5266 14.5562 11.1711 14.9756 11.1721 15.4819ZM12.0261 20.3569C11.572 20.3789 11.1968 19.9837 11.176 19.4774C11.176 18.9711 11.5305 18.5528 11.9847 18.5297C12.429 18.5286 12.7953 18.9139 12.8051 19.4081C12.8259 19.9155 12.4704 20.3338 12.0261 20.3569ZM7.1043 15.5204C7.12405 16.0268 7.50022 16.423 7.95439 16.3999C8.39869 16.3779 8.75314 15.9585 8.73241 15.4522C8.72253 14.9569 8.35722 14.5716 7.91194 14.5727C7.45777 14.5948 7.10332 15.0141 7.1043 15.5204ZM7.95836 20.3624C7.50419 20.3855 7.12901 19.9892 7.10827 19.4829C7.10728 18.9766 7.46272 18.5572 7.91689 18.5352C8.36119 18.5341 8.72749 18.9194 8.73736 19.4147C8.7581 19.921 8.40365 20.3404 7.95836 20.3624Z" fill="#030229"/>
</g>
<path opacity="0.5" d="M44.368 19.0618C43.2267 19.0618 42.2507 18.8272 41.44 18.3578C40.6293 17.8885 40.0053 17.2218 39.568 16.3578C39.1413 15.4832 38.928 14.4538 38.928 13.2698C38.928 12.3845 39.0507 11.5898 39.296 10.8858C39.5413 10.1712 39.8933 9.56318 40.352 9.06185C40.8213 8.54985 41.392 8.16051 42.064 7.89385C42.7467 7.62718 43.5147 7.49385 44.368 7.49385C44.9973 7.49385 45.6 7.57918 46.176 7.74985C46.7627 7.92051 47.2693 8.16585 47.696 8.48585C47.8773 8.60318 47.9947 8.74718 48.048 8.91785C48.112 9.07785 48.1227 9.23251 48.08 9.38185C48.048 9.53118 47.9787 9.65918 47.872 9.76585C47.7653 9.86185 47.6267 9.91518 47.456 9.92585C47.296 9.93651 47.12 9.87785 46.928 9.74985C46.576 9.48318 46.1867 9.28585 45.76 9.15785C45.3333 9.02985 44.8853 8.96585 44.416 8.96585C43.6053 8.96585 42.9227 9.13651 42.368 9.47785C41.8133 9.80851 41.392 10.2938 41.104 10.9338C40.816 11.5738 40.672 12.3525 40.672 13.2698C40.672 14.1872 40.816 14.9712 41.104 15.6218C41.392 16.2618 41.8133 16.7525 42.368 17.0938C42.9227 17.4245 43.6053 17.5898 44.416 17.5898C44.8853 17.5898 45.3333 17.5258 45.76 17.3978C46.1973 17.2592 46.608 17.0565 46.992 16.7898C47.184 16.6725 47.3547 16.6192 47.504 16.6298C47.664 16.6405 47.7973 16.6938 47.904 16.7898C48.0107 16.8858 48.08 17.0085 48.112 17.1578C48.1547 17.2965 48.1493 17.4458 48.096 17.6058C48.0533 17.7552 47.952 17.8832 47.792 17.9898C47.3547 18.3418 46.8373 18.6085 46.24 18.7898C45.6427 18.9712 45.0187 19.0618 44.368 19.0618ZM52.1789 19.0618C51.6349 19.0618 51.1442 18.9552 50.7069 18.7418C50.2802 18.5285 49.9442 18.2405 49.6989 17.8778C49.4535 17.5152 49.3309 17.1045 49.3309 16.6458C49.3309 16.0698 49.4749 15.6165 49.7629 15.2858C50.0615 14.9445 50.5469 14.7045 51.2189 14.5658C51.9015 14.4165 52.8189 14.3418 53.9709 14.3418H54.7229V15.3338H53.9869C53.2189 15.3338 52.6109 15.3712 52.1629 15.4458C51.7149 15.5205 51.3949 15.6485 51.2029 15.8298C51.0215 16.0005 50.9309 16.2405 50.9309 16.5498C50.9309 16.9552 51.0695 17.2858 51.3469 17.5418C51.6242 17.7872 52.0082 17.9098 52.4989 17.9098C52.8935 17.9098 53.2402 17.8192 53.5389 17.6378C53.8375 17.4458 54.0722 17.1898 54.2429 16.8698C54.4242 16.5498 54.5149 16.1818 54.5149 15.7658V13.9258C54.5149 13.3178 54.3869 12.8805 54.1309 12.6138C53.8749 12.3472 53.4535 12.2138 52.8669 12.2138C52.5255 12.2138 52.1682 12.2565 51.7949 12.3418C51.4322 12.4272 51.0535 12.5712 50.6589 12.7738C50.4775 12.8592 50.3229 12.8858 50.1949 12.8538C50.0669 12.8218 49.9655 12.7525 49.8909 12.6458C49.8162 12.5285 49.7735 12.4058 49.7629 12.2778C49.7629 12.1392 49.7949 12.0058 49.8589 11.8778C49.9335 11.7498 50.0562 11.6538 50.2269 11.5898C50.6962 11.3658 51.1602 11.2058 51.6189 11.1098C52.0775 11.0138 52.5095 10.9658 52.9149 10.9658C53.6295 10.9658 54.2162 11.0778 54.6749 11.3018C55.1442 11.5258 55.4909 11.8672 55.7149 12.3258C55.9389 12.7845 56.0509 13.3765 56.0509 14.1018V18.2138C56.0509 18.4698 55.9869 18.6725 55.8589 18.8218C55.7309 18.9605 55.5442 19.0298 55.2989 19.0298C55.0642 19.0298 54.8775 18.9605 54.7389 18.8218C54.6002 18.6725 54.5309 18.4698 54.5309 18.2138V17.1738H54.6749C54.5895 17.5685 54.4295 17.9098 54.1949 18.1978C53.9709 18.4752 53.6882 18.6885 53.3469 18.8378C53.0055 18.9872 52.6162 19.0618 52.1789 19.0618ZM60.7886 19.0618C59.9566 19.0618 59.3273 18.8218 58.9006 18.3418C58.4846 17.8512 58.2766 17.1472 58.2766 16.2298V8.34185C58.2766 8.07518 58.346 7.87251 58.4846 7.73385C58.6233 7.59518 58.8206 7.52585 59.0766 7.52585C59.3326 7.52585 59.53 7.59518 59.6686 7.73385C59.818 7.87251 59.8926 8.07518 59.8926 8.34185V16.1338C59.8926 16.6672 59.9993 17.0672 60.2126 17.3338C60.4366 17.5898 60.7566 17.7178 61.1726 17.7178C61.2686 17.7178 61.354 17.7178 61.4286 17.7178C61.5033 17.7072 61.578 17.6965 61.6526 17.6858C61.7806 17.6752 61.8713 17.7125 61.9246 17.7978C61.978 17.8725 62.0046 18.0325 62.0046 18.2778C62.0046 18.5018 61.9566 18.6778 61.8606 18.8058C61.7646 18.9232 61.61 18.9978 61.3966 19.0298C61.3006 19.0405 61.1993 19.0458 61.0926 19.0458C60.986 19.0565 60.8846 19.0618 60.7886 19.0618ZM66.7531 19.0618C65.8998 19.0618 65.1638 18.9018 64.5451 18.5818C63.9371 18.2512 63.4625 17.7872 63.1211 17.1898C62.7905 16.5818 62.6251 15.8618 62.6251 15.0298C62.6251 14.2192 62.7905 13.5098 63.1211 12.9018C63.4518 12.2938 63.9051 11.8192 64.4811 11.4778C65.0571 11.1365 65.7131 10.9658 66.4491 10.9658C66.9931 10.9658 67.4785 11.0565 67.9051 11.2378C68.3318 11.4085 68.6945 11.6645 68.9931 12.0058C69.3025 12.3365 69.5318 12.7418 69.6811 13.2218C69.8411 13.7018 69.9211 14.2405 69.9211 14.8378C69.9211 15.0192 69.8678 15.1578 69.7611 15.2538C69.6545 15.3392 69.4945 15.3818 69.2811 15.3818H63.9051V14.3898H68.8331L68.5611 14.6138C68.5611 14.0805 68.4811 13.6272 68.3211 13.2538C68.1718 12.8805 67.9425 12.5978 67.6331 12.4058C67.3345 12.2032 66.9611 12.1018 66.5131 12.1018C66.0118 12.1018 65.5851 12.2192 65.2331 12.4538C64.8918 12.6885 64.6305 13.0138 64.4491 13.4298C64.2678 13.8458 64.1771 14.3312 64.1771 14.8858V14.9818C64.1771 15.9205 64.3958 16.6298 64.8331 17.1098C65.2811 17.5792 65.9265 17.8138 66.7691 17.8138C67.0891 17.8138 67.4251 17.7712 67.7771 17.6858C68.1398 17.6005 68.4811 17.4565 68.8011 17.2538C68.9825 17.1472 69.1425 17.0992 69.2811 17.1098C69.4305 17.1205 69.5478 17.1685 69.6331 17.2538C69.7291 17.3392 69.7878 17.4458 69.8091 17.5738C69.8305 17.7018 69.8091 17.8352 69.7451 17.9738C69.6811 18.1018 69.5691 18.2192 69.4091 18.3258C69.0465 18.5712 68.6251 18.7578 68.1451 18.8858C67.6651 19.0032 67.2011 19.0618 66.7531 19.0618ZM72.4829 19.0298C72.2269 19.0298 72.0295 18.9605 71.8909 18.8218C71.7522 18.6725 71.6829 18.4698 71.6829 18.2138V11.8138C71.6829 11.5472 71.7522 11.3445 71.8909 11.2058C72.0295 11.0672 72.2215 10.9978 72.4669 10.9978C72.7229 10.9978 72.9149 11.0672 73.0429 11.2058C73.1815 11.3445 73.2509 11.5472 73.2509 11.8138V13.0618L73.0749 12.7738C73.3095 12.1765 73.6775 11.7285 74.1789 11.4298C74.6802 11.1205 75.2562 10.9658 75.9069 10.9658C76.5255 10.9658 77.0375 11.0832 77.4429 11.3178C77.8589 11.5418 78.1682 11.8885 78.3709 12.3578C78.5735 12.8165 78.6749 13.3978 78.6749 14.1018V18.2138C78.6749 18.4698 78.6055 18.6725 78.4669 18.8218C78.3282 18.9605 78.1309 19.0298 77.8749 19.0298C77.6082 19.0298 77.4055 18.9605 77.2669 18.8218C77.1282 18.6725 77.0589 18.4698 77.0589 18.2138V14.1978C77.0589 13.5258 76.9255 13.0352 76.6589 12.7258C76.4029 12.4165 75.9975 12.2618 75.4429 12.2618C74.7922 12.2618 74.2695 12.4645 73.8749 12.8698C73.4909 13.2752 73.2989 13.8192 73.2989 14.5018V18.2138C73.2989 18.7578 73.0269 19.0298 72.4829 19.0298ZM83.8776 19.0618C83.195 19.0618 82.5923 18.9018 82.0696 18.5818C81.5576 18.2512 81.1576 17.7818 80.8696 17.1738C80.5816 16.5552 80.4376 15.8352 80.4376 15.0138C80.4376 14.1712 80.5816 13.4512 80.8696 12.8538C81.1576 12.2565 81.5576 11.7925 82.0696 11.4618C82.5923 11.1312 83.195 10.9658 83.8776 10.9658C84.5603 10.9658 85.147 11.1365 85.6376 11.4778C86.139 11.8085 86.475 12.2565 86.6456 12.8218H86.4696V8.34185C86.4696 8.07518 86.539 7.87251 86.6776 7.73385C86.8163 7.59518 87.0136 7.52585 87.2696 7.52585C87.5256 7.52585 87.723 7.59518 87.8616 7.73385C88.011 7.87251 88.0856 8.07518 88.0856 8.34185V18.2138C88.0856 18.4698 88.0163 18.6725 87.8776 18.8218C87.739 18.9605 87.5416 19.0298 87.2856 19.0298C87.0296 19.0298 86.8323 18.9605 86.6936 18.8218C86.555 18.6725 86.4856 18.4698 86.4856 18.2138V16.8058L86.6616 17.1578C86.491 17.7338 86.155 18.1978 85.6536 18.5498C85.163 18.8912 84.571 19.0618 83.8776 19.0618ZM84.2936 17.8138C84.731 17.8138 85.115 17.7072 85.4456 17.4938C85.7763 17.2805 86.0323 16.9658 86.2136 16.5498C86.4056 16.1338 86.5016 15.6218 86.5016 15.0138C86.5016 14.0965 86.299 13.4032 85.8936 12.9338C85.4883 12.4645 84.955 12.2298 84.2936 12.2298C83.8456 12.2298 83.4563 12.3365 83.1256 12.5498C82.795 12.7525 82.5336 13.0618 82.3416 13.4778C82.1603 13.8938 82.0696 14.4058 82.0696 15.0138C82.0696 15.9205 82.2723 16.6138 82.6776 17.0938C83.083 17.5738 83.6216 17.8138 84.2936 17.8138ZM92.8508 19.0618C92.3068 19.0618 91.8161 18.9552 91.3788 18.7418C90.9521 18.5285 90.6161 18.2405 90.3708 17.8778C90.1254 17.5152 90.0028 17.1045 90.0028 16.6458C90.0028 16.0698 90.1468 15.6165 90.4348 15.2858C90.7334 14.9445 91.2188 14.7045 91.8908 14.5658C92.5734 14.4165 93.4908 14.3418 94.6428 14.3418H95.3948V15.3338H94.6588C93.8908 15.3338 93.2828 15.3712 92.8348 15.4458C92.3868 15.5205 92.0668 15.6485 91.8748 15.8298C91.6934 16.0005 91.6028 16.2405 91.6028 16.5498C91.6028 16.9552 91.7414 17.2858 92.0188 17.5418C92.2961 17.7872 92.6801 17.9098 93.1708 17.9098C93.5654 17.9098 93.9121 17.8192 94.2108 17.6378C94.5094 17.4458 94.7441 17.1898 94.9148 16.8698C95.0961 16.5498 95.1868 16.1818 95.1868 15.7658V13.9258C95.1868 13.3178 95.0588 12.8805 94.8028 12.6138C94.5468 12.3472 94.1254 12.2138 93.5388 12.2138C93.1974 12.2138 92.8401 12.2565 92.4668 12.3418C92.1041 12.4272 91.7254 12.5712 91.3307 12.7738C91.1494 12.8592 90.9948 12.8858 90.8668 12.8538C90.7388 12.8218 90.6374 12.7525 90.5628 12.6458C90.4881 12.5285 90.4454 12.4058 90.4348 12.2778C90.4348 12.1392 90.4668 12.0058 90.5308 11.8778C90.6054 11.7498 90.7281 11.6538 90.8988 11.5898C91.3681 11.3658 91.8321 11.2058 92.2908 11.1098C92.7494 11.0138 93.1814 10.9658 93.5868 10.9658C94.3014 10.9658 94.8881 11.0778 95.3468 11.3018C95.8161 11.5258 96.1628 11.8672 96.3868 12.3258C96.6108 12.7845 96.7228 13.3765 96.7228 14.1018V18.2138C96.7228 18.4698 96.6588 18.6725 96.5308 18.8218C96.4028 18.9605 96.2161 19.0298 95.9708 19.0298C95.7361 19.0298 95.5494 18.9605 95.4108 18.8218C95.2721 18.6725 95.2028 18.4698 95.2028 18.2138V17.1738H95.3468C95.2614 17.5685 95.1014 17.9098 94.8668 18.1978C94.6428 18.4752 94.3601 18.6885 94.0188 18.8378C93.6774 18.9872 93.2881 19.0618 92.8508 19.0618ZM99.7645 19.0298C99.4978 19.0298 99.2952 18.9605 99.1565 18.8218C99.0178 18.6725 98.9485 18.4698 98.9485 18.2138V11.8138C98.9485 11.5472 99.0178 11.3445 99.1565 11.2058C99.2952 11.0672 99.4872 10.9978 99.7325 10.9978C99.9885 10.9978 100.181 11.0672 100.309 11.2058C100.447 11.3445 100.517 11.5472 100.517 11.8138V12.9818H100.357C100.527 12.3418 100.842 11.8565 101.301 11.5258C101.759 11.1952 102.346 11.0032 103.061 10.9498C103.253 10.9392 103.402 10.9872 103.509 11.0938C103.626 11.2005 103.69 11.3658 103.701 11.5898C103.722 11.8138 103.674 11.9952 103.557 12.1338C103.439 12.2618 103.258 12.3365 103.013 12.3578L102.709 12.3898C102.015 12.4538 101.487 12.6725 101.125 13.0458C100.762 13.4192 100.581 13.9312 100.581 14.5818V18.2138C100.581 18.4698 100.511 18.6725 100.373 18.8218C100.245 18.9605 100.042 19.0298 99.7645 19.0298Z" fill="#030229"/>
</svg>
