<svg width="18" height="23" viewBox="0 0 18 23" xmlns="http://www.w3.org/2000/svg">
<path fill-rule="evenodd" clip-rule="evenodd" d="M13.4109 1.75186L13.4119 2.57738C16.1665 2.81513 17.9862 4.88222 17.9891 8.05221L18 17.331C18.0039 20.7872 16.0322 22.9137 12.8718 22.9192L5.15188 22.9302C2.01119 22.9346 0.0148166 20.7575 0.0108673 17.2914L6.64975e-06 8.12155C-0.00394266 4.93065 1.75153 2.86906 4.50617 2.59059L4.50518 1.76507C4.5042 1.28076 4.83001 0.916435 5.26444 0.916435C5.69886 0.915335 6.02468 1.27856 6.02567 1.76287L6.02666 2.53335L11.8914 2.52454L11.8904 1.75406C11.8894 1.26976 12.2152 0.906529 12.6497 0.905429C13.0742 0.904328 13.4099 1.26756 13.4109 1.75186ZM1.52146 8.46166L16.4696 8.43965V8.05441C16.4272 5.68792 15.349 4.44634 13.4138 4.26143L13.4148 5.10896C13.4148 5.58226 13.0801 5.95759 12.6556 5.95759C12.2211 5.95869 11.8943 5.58446 11.8943 5.11116L11.8933 4.2196L6.02862 4.22841L6.0296 5.11887C6.0296 5.59326 5.70477 5.9675 5.27035 5.9675C4.83592 5.9686 4.50912 5.59547 4.50912 5.12107L4.50813 4.27354C2.58284 4.48597 1.51751 5.73195 1.52048 8.11935L1.52146 8.46166ZM12.2399 13.4643V13.4764C12.2498 13.9827 12.625 14.3669 13.0801 14.3559C13.5244 14.3438 13.8789 13.9244 13.869 13.4181C13.8483 12.9338 13.4918 12.5386 13.0485 12.5397C12.5943 12.5507 12.2389 12.958 12.2399 13.4643ZM13.0554 18.4064C12.6013 18.3954 12.235 17.9782 12.234 17.4719C12.2241 16.9656 12.5884 16.5462 13.0426 16.5341H13.0525C13.5165 16.5341 13.8927 16.9513 13.8927 17.4686C13.8937 17.9859 13.5185 18.4053 13.0554 18.4064ZM8.17211 13.4819C8.19186 13.9882 8.56803 14.3834 9.0222 14.3614C9.4665 14.3382 9.82095 13.92 9.80121 13.4137C9.79035 12.9184 9.42503 12.5331 8.98074 12.5342C8.52657 12.5562 8.17113 12.9756 8.17211 13.4819ZM9.02614 18.3569C8.57197 18.3789 8.19678 17.9837 8.17605 17.4774C8.17605 16.9711 8.5305 16.5528 8.98467 16.5297C9.42897 16.5286 9.79527 16.9139 9.80514 17.4081C9.82587 17.9155 9.47044 18.3338 9.02614 18.3569ZM4.1043 13.5204C4.12405 14.0268 4.50022 14.423 4.95439 14.3999C5.39869 14.3779 5.75314 13.9585 5.73241 13.4522C5.72253 12.9569 5.35722 12.5716 4.91194 12.5727C4.45777 12.5948 4.10332 13.0141 4.1043 13.5204ZM4.95836 18.3624C4.50419 18.3855 4.12901 17.9892 4.10827 17.4829C4.10728 16.9766 4.46272 16.5572 4.91689 16.5352C5.36119 16.5341 5.72749 16.9194 5.73736 17.4147C5.7581 17.921 5.40365 18.3404 4.95836 18.3624Z" />
</svg>
