<svg width="18" height="23" viewBox="0 0 18 23" fill="none" xmlns="http://www.w3.org/2000/svg">
<path fill-rule="evenodd" clip-rule="evenodd" d="M4.81 0.475647H13.191C16.28 0.475647 18 2.43586 18 5.79464V17.1705C18 20.5843 16.28 22.5005 13.191 22.5005H4.81C1.77 22.5005 0 20.5843 0 17.1705V5.79464C0 2.43586 1.77 0.475647 4.81 0.475647ZM5.07999 5.60743V5.59642H8.06899C8.49999 5.59642 8.84999 5.98185 8.84999 6.45429C8.84999 6.93993 8.49999 7.32537 8.06899 7.32537H5.07999C4.64899 7.32537 4.29999 6.93994 4.29999 6.4664C4.29999 5.99287 4.64899 5.60743 5.07999 5.60743ZM5.07999 12.303H12.92C13.35 12.303 13.7 11.9176 13.7 11.444C13.7 10.9705 13.35 10.5839 12.92 10.5839H5.07999C4.64899 10.5839 4.29999 10.9705 4.29999 11.444C4.29999 11.9176 4.64899 12.303 5.07999 12.303ZM5.07999 17.3357H12.92C13.319 17.2916 13.62 16.9161 13.62 16.4767C13.62 16.0252 13.319 15.6508 12.92 15.6067H5.07999C4.77999 15.5737 4.48999 15.7278 4.32999 16.0142C4.16999 16.2895 4.16999 16.6529 4.32999 16.9392C4.48999 17.2145 4.77999 17.3797 5.07999 17.3357Z" fill="#030229"/>
</svg>
