<svg width="37" height="36" viewBox="0 0 37 36" fill="none" xmlns="http://www.w3.org/2000/svg">
<g clip-path="url(#clip0_22_2724)">
<path d="M22.7801 17.2998L10.9556 15.1998V30.7167C10.9556 31.4253 11.5264 31.9998 12.2305 31.9998H32.6341C33.3382 31.9998 33.9091 31.4253 33.9091 30.7167V24.9998L22.7801 17.2998Z" fill="#185C37"/>
<path d="M22.7802 4H12.2306C11.5264 4 10.9556 4.57446 10.9556 5.2831V11L22.7802 18L29.0402 20.1L33.9091 18V11L22.7802 4Z" fill="#21A366"/>
<path d="M10.9556 11H22.7802V18H10.9556V11Z" fill="#107C41"/>
<path opacity="0.1" d="M19.4185 9.60049H10.9556V27.1005H19.4185C20.1216 27.0982 20.6911 26.5251 20.6934 25.8174V10.8836C20.6911 10.1759 20.1216 9.60279 19.4185 9.60049Z" fill="black"/>
<path opacity="0.2" d="M18.7229 10.3002H10.9556V27.8002H18.7229C19.4261 27.7979 19.9956 27.2248 19.9978 26.5171V11.5833C19.9956 10.8757 19.4261 10.3025 18.7229 10.3002Z" fill="black"/>
<path opacity="0.2" d="M18.7229 10.3002H10.9556V26.4002H18.7229C19.4261 26.3979 19.9956 25.8248 19.9978 25.1172V11.5833C19.9956 10.8757 19.4261 10.3025 18.7229 10.3002Z" fill="black"/>
<path opacity="0.2" d="M18.0273 10.3002H10.9556V26.4002H18.0273C18.7305 26.3979 19.3 25.8248 19.3023 25.1172V11.5833C19.3 10.8757 18.7305 10.3025 18.0273 10.3002Z" fill="black"/>
<path d="M5.27496 10.3002H18.0274C18.7315 10.3002 19.3023 10.8747 19.3023 11.5833V24.4171C19.3023 25.1258 18.7315 25.7002 18.0274 25.7002H5.27496C4.57082 25.7002 4 25.1258 4 24.4171V11.5833C4 10.8747 4.57082 10.3002 5.27496 10.3002Z" fill="url(#paint0_linear_22_2724)"/>
<path d="M7.94867 22.1706L10.6307 17.9881L8.17334 13.8287H10.1501L11.4912 16.4887C11.615 16.7414 11.6998 16.929 11.7457 17.0529H11.7631C11.8512 16.8513 11.944 16.6555 12.0413 16.4656L13.4749 13.8301H15.2896L12.7696 17.965L15.3536 22.1706H13.4227L11.8737 19.2509C11.8008 19.1267 11.7388 18.9962 11.6887 18.861H11.6658C11.6204 18.9934 11.5602 19.1203 11.4863 19.239L9.89138 22.1706H7.94867Z" fill="white"/>
<path d="M32.6342 4H22.7802V11H33.9091V5.2831C33.9091 4.57446 33.3383 4 32.6342 4Z" fill="#33C481"/>
<path d="M22.7802 18H33.9091V25H22.7802V18Z" fill="#107C41"/>
</g>
<defs>
<linearGradient id="paint0_linear_22_2724" x1="6.65832" y1="9.29766" x2="16.7396" y2="26.6473" gradientUnits="userSpaceOnUse">
<stop stop-color="#18884F"/>
<stop offset="0.5" stop-color="#117E43"/>
<stop offset="1" stop-color="#0B6631"/>
</linearGradient>
<clipPath id="clip0_22_2724">
<rect width="29.9091" height="28" fill="white" transform="translate(4 4)"/>
</clipPath>
</defs>
</svg>
