<svg width="89" height="25" viewBox="0 0 89 25" fill="none" xmlns="http://www.w3.org/2000/svg">
<path opacity="0.5" d="M40.144 16.3852C39.8773 16.3852 39.6693 16.3105 39.52 16.1612C39.3813 16.0118 39.312 15.8038 39.312 15.5372V5.72916C39.312 5.45183 39.3813 5.24383 39.52 5.10516C39.6693 4.95583 39.8773 4.88116 40.144 4.88116C40.4107 4.88116 40.6133 4.95583 40.752 5.10516C40.9013 5.24383 40.976 5.45183 40.976 5.72916V15.5372C40.976 15.8038 40.9067 16.0118 40.768 16.1612C40.6293 16.3105 40.4213 16.3852 40.144 16.3852ZM44.2173 16.3852C43.9613 16.3852 43.7639 16.3158 43.6253 16.1772C43.4866 16.0278 43.4173 15.8252 43.4173 15.5692V9.16916C43.4173 8.9025 43.4866 8.69983 43.6253 8.56116C43.7639 8.4225 43.9559 8.35316 44.2013 8.35316C44.4573 8.35316 44.6493 8.4225 44.7773 8.56116C44.9159 8.69983 44.9853 8.9025 44.9853 9.16916V10.4172L44.8093 10.1292C45.0439 9.53183 45.4119 9.08383 45.9133 8.78516C46.4146 8.47583 46.9906 8.32116 47.6413 8.32116C48.2599 8.32116 48.7719 8.4385 49.1773 8.67316C49.5933 8.89716 49.9026 9.24383 50.1053 9.71316C50.3079 10.1718 50.4093 10.7532 50.4093 11.4572V15.5692C50.4093 15.8252 50.3399 16.0278 50.2013 16.1772C50.0626 16.3158 49.8653 16.3852 49.6093 16.3852C49.3426 16.3852 49.1399 16.3158 49.0013 16.1772C48.8626 16.0278 48.7933 15.8252 48.7933 15.5692V11.5532C48.7933 10.8812 48.6599 10.3905 48.3933 10.0812C48.1373 9.77183 47.7319 9.61716 47.1773 9.61716C46.5266 9.61716 46.0039 9.81983 45.6093 10.2252C45.2253 10.6305 45.0333 11.1745 45.0333 11.8572V15.5692C45.0333 16.1132 44.7613 16.3852 44.2173 16.3852ZM55.5819 16.3852C55.3579 16.3852 55.1605 16.3265 54.9899 16.2092C54.8299 16.0918 54.6965 15.9105 54.5899 15.6652L51.9179 9.45716C51.8325 9.26516 51.8005 9.08383 51.8219 8.91316C51.8432 8.7425 51.9232 8.60916 52.0619 8.51316C52.2005 8.4065 52.3872 8.35316 52.6219 8.35316C52.8245 8.35316 52.9845 8.40116 53.1019 8.49716C53.2192 8.59316 53.3259 8.7585 53.4219 8.99316L55.8379 14.9452H55.3899L57.8539 8.99316C57.9499 8.7585 58.0565 8.59316 58.1739 8.49716C58.3019 8.40116 58.4779 8.35316 58.7019 8.35316C58.8939 8.35316 59.0432 8.4065 59.1499 8.51316C59.2672 8.60916 59.3365 8.7425 59.3579 8.91316C59.3899 9.07316 59.3632 9.24916 59.2779 9.44116L56.5739 15.6652C56.4779 15.9105 56.3445 16.0918 56.1739 16.2092C56.0032 16.3265 55.8059 16.3852 55.5819 16.3852ZM64.1218 16.4172C63.3324 16.4172 62.6498 16.2518 62.0738 15.9212C61.5084 15.5905 61.0658 15.1212 60.7458 14.5132C60.4258 13.9052 60.2658 13.1905 60.2658 12.3692C60.2658 11.7398 60.3564 11.1798 60.5378 10.6892C60.7191 10.1985 60.9751 9.77716 61.3058 9.42516C61.6471 9.0625 62.0524 8.7905 62.5218 8.60916C63.0018 8.41716 63.5351 8.32116 64.1218 8.32116C64.9004 8.32116 65.5724 8.4865 66.1378 8.81716C66.7138 9.14783 67.1618 9.61716 67.4818 10.2252C67.8018 10.8225 67.9618 11.5372 67.9618 12.3692C67.9618 12.9878 67.8711 13.5478 67.6898 14.0492C67.5084 14.5505 67.2471 14.9772 66.9058 15.3292C66.5751 15.6812 66.1698 15.9532 65.6898 16.1452C65.2204 16.3265 64.6978 16.4172 64.1218 16.4172ZM64.1218 15.1692C64.5591 15.1692 64.9431 15.0625 65.2738 14.8492C65.6044 14.6358 65.8604 14.3212 66.0418 13.9052C66.2338 13.4892 66.3298 12.9772 66.3298 12.3692C66.3298 11.4518 66.1271 10.7585 65.7218 10.2892C65.3164 9.81983 64.7831 9.58516 64.1218 9.58516C63.6738 9.58516 63.2844 9.69183 62.9538 9.90516C62.6231 10.1078 62.3618 10.4172 62.1698 10.8332C61.9884 11.2492 61.8978 11.7612 61.8978 12.3692C61.8978 13.2758 62.1004 13.9692 62.5058 14.4492C62.9111 14.9292 63.4498 15.1692 64.1218 15.1692ZM70.5766 16.3692C70.3206 16.3692 70.1233 16.2945 69.9846 16.1452C69.846 15.9852 69.7766 15.7665 69.7766 15.4892V9.24916C69.7766 8.97183 69.846 8.7585 69.9846 8.60916C70.1233 8.45983 70.3206 8.38516 70.5766 8.38516C70.8326 8.38516 71.03 8.45983 71.1686 8.60916C71.318 8.7585 71.3926 8.97183 71.3926 9.24916V15.4892C71.3926 15.7665 71.3233 15.9852 71.1846 16.1452C71.046 16.2945 70.8433 16.3692 70.5766 16.3692ZM70.5766 6.72116C70.2566 6.72116 70.006 6.64116 69.8246 6.48116C69.654 6.32116 69.5686 6.09716 69.5686 5.80916C69.5686 5.5105 69.654 5.2865 69.8246 5.13716C70.006 4.97716 70.2566 4.89716 70.5766 4.89716C70.8966 4.89716 71.142 4.97716 71.3126 5.13716C71.494 5.2865 71.5846 5.5105 71.5846 5.80916C71.5846 6.09716 71.494 6.32116 71.3126 6.48116C71.142 6.64116 70.8966 6.72116 70.5766 6.72116ZM77.1073 16.4172C76.3073 16.4172 75.6139 16.2518 75.0273 15.9212C74.4513 15.5798 74.0033 15.1052 73.6833 14.4972C73.3633 13.8785 73.2033 13.1532 73.2033 12.3212C73.2033 11.7025 73.2939 11.1478 73.4753 10.6572C73.6566 10.1558 73.9126 9.7345 74.2433 9.39316C74.5846 9.05183 74.9953 8.7905 75.4753 8.60916C75.9659 8.41716 76.5099 8.32116 77.1073 8.32116C77.4806 8.32116 77.8699 8.37983 78.2753 8.49716C78.6913 8.60383 79.0753 8.78516 79.4273 9.04116C79.5659 9.1265 79.6513 9.23316 79.6833 9.36116C79.7259 9.4785 79.7313 9.60116 79.6993 9.72916C79.6779 9.85716 79.6193 9.96916 79.5233 10.0652C79.4379 10.1505 79.3313 10.2038 79.2033 10.2252C79.0753 10.2358 78.9366 10.1985 78.7873 10.1132C78.5313 9.93183 78.2699 9.80383 78.0033 9.72916C77.7366 9.64383 77.4806 9.60116 77.2352 9.60116C76.8513 9.60116 76.5099 9.66516 76.2113 9.79316C75.9233 9.9105 75.6779 10.0865 75.4753 10.3212C75.2726 10.5452 75.1179 10.8278 75.0113 11.1692C74.9153 11.5105 74.8673 11.8998 74.8673 12.3372C74.8673 13.2118 75.0699 13.8998 75.4753 14.4012C75.8913 14.8918 76.4779 15.1372 77.2352 15.1372C77.4806 15.1372 77.7366 15.0998 78.0033 15.0252C78.2699 14.9505 78.5313 14.8225 78.7873 14.6412C78.9366 14.5558 79.0753 14.5238 79.2033 14.5452C79.3313 14.5665 79.4326 14.6252 79.5073 14.7212C79.5926 14.8065 79.6459 14.9132 79.6673 15.0412C79.6993 15.1585 79.6939 15.2812 79.6513 15.4092C79.6086 15.5372 79.5179 15.6438 79.3793 15.7292C79.0379 15.9745 78.6646 16.1505 78.2593 16.2572C77.8646 16.3638 77.4806 16.4172 77.1073 16.4172ZM84.6438 16.4172C83.7904 16.4172 83.0544 16.2572 82.4358 15.9372C81.8278 15.6065 81.3531 15.1425 81.0118 14.5452C80.6811 13.9372 80.5158 13.2172 80.5158 12.3852C80.5158 11.5745 80.6811 10.8652 81.0118 10.2572C81.3424 9.64916 81.7958 9.1745 82.3718 8.83316C82.9478 8.49183 83.6038 8.32116 84.3398 8.32116C84.8838 8.32116 85.3691 8.41183 85.7958 8.59316C86.2224 8.76383 86.5851 9.01983 86.8838 9.36116C87.1931 9.69183 87.4224 10.0972 87.5718 10.5772C87.7318 11.0572 87.8118 11.5958 87.8118 12.1932C87.8118 12.3745 87.7584 12.5132 87.6518 12.6092C87.5451 12.6945 87.3851 12.7372 87.1718 12.7372H81.7958V11.7452H86.7238L86.4518 11.9692C86.4518 11.4358 86.3718 10.9825 86.2118 10.6092C86.0624 10.2358 85.8331 9.95316 85.5238 9.76116C85.2251 9.5585 84.8518 9.45716 84.4038 9.45716C83.9024 9.45716 83.4758 9.5745 83.1238 9.80916C82.7824 10.0438 82.5211 10.3692 82.3398 10.7852C82.1584 11.2012 82.0678 11.6865 82.0678 12.2412V12.3372C82.0678 13.2758 82.2864 13.9852 82.7238 14.4652C83.1718 14.9345 83.8171 15.1692 84.6598 15.1692C84.9798 15.1692 85.3158 15.1265 85.6678 15.0412C86.0304 14.9558 86.3718 14.8118 86.6918 14.6092C86.8731 14.5025 87.0331 14.4545 87.1718 14.4652C87.3211 14.4758 87.4384 14.5238 87.5238 14.6092C87.6198 14.6945 87.6784 14.8012 87.6998 14.9292C87.7211 15.0572 87.6998 15.1905 87.6358 15.3292C87.5718 15.4572 87.4598 15.5745 87.2998 15.6812C86.9371 15.9265 86.5158 16.1132 86.0358 16.2412C85.5558 16.3585 85.0918 16.4172 84.6438 16.4172Z" fill="#030229"/>
<g opacity="0.4">
<path fill-rule="evenodd" clip-rule="evenodd" d="M21.7872 9.47424C21.6518 9.61909 21.4681 9.70186 21.2747 9.70186C20.559 9.70186 19.9787 10.3226 19.9787 11.0779C19.9787 11.8384 20.5522 12.4561 21.2611 12.4643C21.6605 12.4685 22 12.7665 22 13.1938V15.8476C22 18.0814 20.3075 19.893 18.2186 19.893H15.0658C14.7398 19.893 14.4758 19.6106 14.4758 19.2619V17.0271C14.4758 16.5925 14.1567 16.2511 13.7505 16.2511C13.354 16.2511 13.0251 16.5925 13.0251 17.0271V19.2619C13.0251 19.6106 12.7611 19.893 12.4362 19.893H5.78143C3.70213 19.893 2 18.0824 2 15.8476V13.1938C2 12.7665 2.33946 12.4685 2.73888 12.4643C3.44874 12.4561 4.02128 11.8384 4.02128 11.0779C4.02128 10.3433 3.46035 9.78463 2.72534 9.78463C2.53191 9.78463 2.34816 9.70186 2.21277 9.55701C2.07737 9.41216 2 9.21558 2 9.00865V6.32894C2 4.09826 3.706 2.27316 5.7911 2.27316H12.4362C12.7611 2.27316 13.0251 2.55562 13.0251 2.90429V5.55296C13.0251 5.97716 13.354 6.32894 13.7505 6.32894C14.1567 6.32894 14.4758 5.97716 14.4758 5.55296V2.90429C14.4758 2.55562 14.7398 2.27316 15.0658 2.27316H18.2186C20.3075 2.27316 22 4.08378 22 6.31859V8.92588C22 9.13281 21.9226 9.32939 21.7872 9.47424ZM13.7505 14.2439C14.1567 14.2439 14.4758 13.8921 14.4758 13.4679V9.32938C14.4758 8.90518 14.1567 8.55341 13.7505 8.55341C13.354 8.55341 13.0251 8.90518 13.0251 9.32938V13.4679C13.0251 13.8921 13.354 14.2439 13.7505 14.2439Z" fill="#030229"/>
</g>
</svg>
