<svg width="166" height="31" viewBox="0 0 166 31" fill="none" xmlns="http://www.w3.org/2000/svg">
<path fill-rule="evenodd" clip-rule="evenodd" d="M13.9749 1.31869C10.6567 1.31915 7.44691 2.53191 4.91967 4.74004C2.39243 6.94816 0.712627 10.0076 0.180751 13.3711C-0.351124 16.7345 0.299623 20.1826 2.01659 23.0985C3.73355 26.0144 6.40472 28.2079 9.55227 29.2866C10.2511 29.4199 10.5506 28.979 10.5506 28.5997V26.1597C6.66706 27.0209 5.84843 24.2323 5.84843 24.2323C5.57533 23.3535 5.00055 22.6066 4.23111 22.1306C2.96322 21.2489 4.33095 21.2592 4.33095 21.2592C4.77382 21.3234 5.19653 21.4907 5.5668 21.7484C5.93708 22.006 6.24512 22.3471 6.4674 22.7457C6.8541 23.458 7.50041 23.9834 8.26424 24.2064C9.02807 24.4294 9.84687 24.3318 10.5406 23.935C10.597 23.2076 10.9093 22.5261 11.4192 22.0178C8.32431 21.6487 5.05974 20.4185 5.05974 14.9233C5.0371 13.4961 5.55214 12.1151 6.49735 11.0685C6.06952 9.83229 6.11954 8.47468 6.63711 7.2752C6.63711 7.2752 7.80517 6.88562 10.4807 8.74126C12.7684 8.10045 15.1814 8.10045 17.4691 8.74126C20.1347 6.88562 21.3027 7.2752 21.3027 7.2752C21.8203 8.47468 21.8703 9.83229 21.4425 11.0685C22.3877 12.1151 22.9027 13.4961 22.8801 14.9233C22.8801 20.439 19.6155 21.6487 16.5007 22.0076C16.8344 22.3549 17.0917 22.7716 17.2553 23.2296C17.4189 23.6877 17.485 24.1764 17.4491 24.6629V28.5997C17.4491 29.0713 17.6987 29.4301 18.4475 29.2866C21.5992 28.2066 24.2731 26.0089 25.9898 23.0876C27.7065 20.1663 28.3536 16.7126 27.8152 13.3457C27.2768 9.97881 25.588 6.91902 23.0517 4.715C20.5154 2.51098 17.2974 1.3069 13.9749 1.31869Z" fill="#858585"/>
<path d="M57.5 2.3186C50.0449 2.3186 44 8.13959 44 15.3186C44 22.4976 50.0449 28.3186 57.5 28.3186C64.9551 28.3186 71 22.4976 71 15.3186C71 8.13959 64.9551 2.3186 57.5 2.3186ZM63.9878 12.1179C63.9969 12.2543 63.9969 12.3965 63.9969 12.5358C63.9969 16.7956 60.6279 21.7025 54.4715 21.7025C52.5731 21.7025 50.8133 21.1715 49.3307 20.2574C49.6019 20.2865 49.861 20.2981 50.1383 20.2981C51.7052 20.2981 53.1456 19.7874 54.2938 18.9226C52.8232 18.8936 51.5877 17.965 51.1658 16.6882C51.6811 16.7608 52.1452 16.7608 52.6756 16.6302C51.9184 16.4821 51.2378 16.0861 50.7494 15.5095C50.2611 14.9329 49.9951 14.2113 49.9967 13.4673V13.4266C50.4396 13.6675 50.9609 13.8155 51.5064 13.8358C51.0479 13.5415 50.6718 13.1429 50.4116 12.6752C50.1514 12.2075 50.0151 11.6851 50.0147 11.1545C50.0147 10.5539 50.1775 10.0054 50.4698 9.52954C51.3102 10.5258 52.3589 11.3407 53.5478 11.9211C54.7367 12.5015 56.0391 12.8345 57.3704 12.8985C56.8973 10.7077 58.5969 8.93467 60.64 8.93467C61.6042 8.93467 62.4721 9.32351 63.0838 9.9503C63.8402 9.81392 64.5634 9.54115 65.2083 9.17552C64.9581 9.92128 64.4338 10.551 63.7377 10.9485C64.4127 10.8789 65.0636 10.699 65.6663 10.4465C65.2113 11.0907 64.6417 11.6624 63.9878 12.1179Z" fill="#858585"/>
<path d="M112.381 4.0686H92.6188C91.65 4.0686 90.875 4.8186 90.875 5.66235V24.8811C90.875 25.7249 91.65 26.4749 92.6188 26.4749H112.381C113.35 26.4749 114.125 25.7249 114.125 24.8811V5.66235C114.125 4.8186 113.35 4.0686 112.381 4.0686ZM97.7531 23.1936H94.3625V12.5061H97.7531V23.1936ZM96.1062 11.0061C95.0406 11.0061 94.0719 10.1624 94.0719 9.03735C94.0719 7.91235 94.9437 7.0686 96.1062 7.0686C97.1719 7.0686 98.1406 7.91235 98.1406 9.03735C98.1406 10.1624 97.1719 11.0061 96.1062 11.0061ZM110.734 23.0999H107.344V17.8499C107.344 16.6311 107.344 14.9436 105.503 14.9436C103.663 14.9436 103.469 16.3499 103.469 17.6624V23.0061H100.078V12.5061H103.275V13.9124H103.372C103.856 13.0686 105.019 12.1311 106.666 12.1311C110.153 12.1311 110.831 14.3811 110.831 17.2874V23.0999H110.734Z" fill="#858585"/>
<path d="M147.647 14.2939C147.356 14.2709 147.065 14.3306 146.812 14.4653C146.558 14.6 146.353 14.8034 146.225 15.0488C146.097 15.2942 146.05 15.5703 146.092 15.8408C146.134 16.1114 146.262 16.3638 146.459 16.5651C146.656 16.7664 146.914 16.9071 147.198 16.9689C147.482 17.0307 147.779 17.0107 148.051 16.9114C148.322 16.8122 148.556 16.6384 148.72 16.4127C148.885 16.187 148.973 15.9201 148.973 15.6467C148.981 15.4762 148.953 15.306 148.89 15.1457C148.828 14.9854 148.732 14.8383 148.609 14.7126C148.486 14.587 148.338 14.4854 148.172 14.4135C148.007 14.3416 147.829 14.301 147.647 14.2939ZM152.392 14.2939C152.101 14.2709 151.81 14.3306 151.557 14.4653C151.303 14.6 151.098 14.8034 150.97 15.0488C150.842 15.2942 150.795 15.5703 150.837 15.8408C150.879 16.1114 151.007 16.3638 151.204 16.5651C151.401 16.7664 151.659 16.9071 151.943 16.9689C152.227 17.0307 152.524 17.0107 152.796 16.9114C153.067 16.8122 153.301 16.6384 153.465 16.4127C153.63 16.187 153.718 15.9201 153.718 15.6467C153.726 15.4762 153.698 15.306 153.635 15.1457C153.573 14.9854 153.477 14.8383 153.354 14.7126C153.231 14.587 153.083 14.4854 152.917 14.4135C152.752 14.3416 152.574 14.301 152.392 14.2939Z" fill="#858585"/>
<path d="M158.71 4.0686H141.29C140.939 4.06934 140.592 4.13487 140.268 4.26145C139.944 4.38804 139.65 4.57319 139.403 4.80633C139.155 5.03948 138.959 5.31605 138.826 5.62025C138.692 5.92445 138.624 6.25031 138.625 6.57923V23.0567C138.624 23.3856 138.692 23.7115 138.826 24.0157C138.959 24.3199 139.155 24.5965 139.403 24.8296C139.65 25.0628 139.944 25.2479 140.268 25.3745C140.592 25.5011 140.939 25.5666 141.29 25.5674H156.032L155.343 23.3127L157.007 24.763L158.58 26.128L161.375 28.4436V6.57923C161.376 6.25031 161.308 5.92445 161.174 5.62025C161.041 5.31605 160.845 5.03948 160.597 4.80633C160.35 4.57319 160.056 4.38804 159.732 4.26145C159.408 4.13487 159.061 4.06934 158.71 4.0686ZM153.692 19.9855C153.692 19.9855 153.224 19.4614 152.834 18.9983C153.776 18.7903 154.61 18.2766 155.187 17.548C154.719 17.8398 154.218 18.081 153.692 18.267C153.087 18.5091 152.455 18.6849 151.807 18.7911C150.694 18.9833 149.552 18.9791 148.44 18.7789C147.787 18.6592 147.148 18.4838 146.529 18.2549C146.203 18.1373 145.886 17.9988 145.58 17.8405C145.541 17.8161 145.502 17.8039 145.463 17.7795C145.443 17.7704 145.426 17.758 145.411 17.743C145.286 17.6793 145.165 17.6101 145.047 17.5358C145.603 18.2491 146.408 18.7578 147.322 18.9739C146.932 19.437 146.451 19.9855 146.451 19.9855C145.679 20.005 144.913 19.8462 144.222 19.5232C143.53 19.2002 142.934 18.7228 142.486 18.133C142.528 15.6622 143.168 13.2327 144.358 11.0277C145.405 10.2568 146.681 9.80962 148.011 9.74798L148.141 9.89423C146.89 10.1845 145.723 10.7296 144.722 11.4908C144.722 11.4908 145.008 11.3445 145.489 11.1374C146.423 10.7375 147.419 10.4783 148.44 10.3695C148.513 10.3554 148.587 10.3473 148.661 10.3452C149.532 10.2388 150.414 10.2306 151.287 10.3208C152.66 10.4678 153.99 10.8653 155.2 11.4908C154.25 10.7659 153.147 10.2383 151.963 9.94298L152.145 9.74798C153.475 9.80962 154.751 10.2568 155.798 11.0277C156.988 13.2327 157.628 15.6622 157.67 18.133C157.218 18.7222 156.619 19.1989 155.926 19.5218C155.233 19.8446 154.466 20.0038 153.692 19.9855Z" fill="#858585"/>
</svg>
