<svg width="123" height="27" viewBox="0 0 123 27" fill="none" xmlns="http://www.w3.org/2000/svg">
<path opacity="0.5" d="M47.792 6.59416C48.0267 6.59416 48.2133 6.67416 48.352 6.83416C48.5013 6.9835 48.576 7.18083 48.576 7.42616V17.2022C48.576 17.4475 48.5013 17.6502 48.352 17.8102C48.2027 17.9595 48.0107 18.0342 47.776 18.0342C47.4987 18.0342 47.2853 17.9275 47.136 17.7142L40.864 9.44216V17.2022C40.864 17.4475 40.7893 17.6502 40.64 17.8102C40.5013 17.9595 40.3147 18.0342 40.08 18.0342C39.8453 18.0342 39.6587 17.9595 39.52 17.8102C39.3813 17.6608 39.312 17.4582 39.312 17.2022V7.42616C39.312 7.18083 39.3867 6.9835 39.536 6.83416C39.6853 6.67416 39.8773 6.59416 40.112 6.59416C40.3893 6.59416 40.6027 6.70083 40.752 6.91416L47.024 15.2022V7.42616C47.024 7.18083 47.0933 6.9835 47.232 6.83416C47.3707 6.67416 47.5573 6.59416 47.792 6.59416ZM54.4026 18.0662C53.6346 18.0662 52.9573 17.9008 52.3706 17.5702C51.7946 17.2395 51.3466 16.7702 51.0266 16.1622C50.7173 15.5435 50.5626 14.8288 50.5626 14.0182C50.5626 13.1968 50.7173 12.4822 51.0266 11.8742C51.3466 11.2555 51.7946 10.7808 52.3706 10.4502C52.9573 10.1195 53.6346 9.95416 54.4026 9.95416C55.1706 9.95416 55.8426 10.1195 56.4186 10.4502C57.0053 10.7808 57.4533 11.2555 57.7626 11.8742C58.0826 12.4822 58.2426 13.1968 58.2426 14.0182C58.2426 14.8288 58.0826 15.5435 57.7626 16.1622C57.4533 16.7702 57.0053 17.2395 56.4186 17.5702C55.8426 17.9008 55.1706 18.0662 54.4026 18.0662ZM54.4026 16.7862C55.1173 16.7862 55.6613 16.5515 56.0346 16.0822C56.4186 15.6128 56.6106 14.9248 56.6106 14.0182C56.6106 13.1222 56.4186 12.4395 56.0346 11.9702C55.6506 11.4902 55.1066 11.2502 54.4026 11.2502C53.6986 11.2502 53.1546 11.4902 52.7706 11.9702C52.3866 12.4395 52.1946 13.1222 52.1946 14.0182C52.1946 14.9248 52.3813 15.6128 52.7546 16.0822C53.1386 16.5515 53.688 16.7862 54.4026 16.7862ZM63.8346 16.8022C64.0693 16.8235 64.2346 16.8875 64.3306 16.9942C64.4373 17.0902 64.4906 17.2288 64.4906 17.4102C64.4906 17.6235 64.4053 17.7888 64.2346 17.9062C64.0746 18.0128 63.8346 18.0555 63.5146 18.0342L63.0826 18.0022C62.2186 17.9382 61.5733 17.6768 61.1466 17.2182C60.72 16.7488 60.5066 16.0608 60.5066 15.1542V11.3942H59.5466C59.0773 11.3942 58.8426 11.1862 58.8426 10.7702C58.8426 10.5782 58.9013 10.4288 59.0186 10.3222C59.1466 10.2048 59.3226 10.1462 59.5466 10.1462H60.5066V8.49816C60.5066 8.25283 60.576 8.06083 60.7146 7.92216C60.864 7.7835 61.0613 7.71416 61.3066 7.71416C61.552 7.71416 61.7493 7.7835 61.8986 7.92216C62.048 8.06083 62.1226 8.25283 62.1226 8.49816V10.1462H63.7066C63.9306 10.1462 64.1013 10.2048 64.2186 10.3222C64.3466 10.4288 64.4106 10.5782 64.4106 10.7702C64.4106 10.9728 64.3466 11.1275 64.2186 11.2342C64.1013 11.3408 63.9306 11.3942 63.7066 11.3942H62.1226V15.2662C62.1226 15.7675 62.224 16.1355 62.4266 16.3702C62.64 16.6048 62.96 16.7382 63.3866 16.7702L63.8346 16.8022ZM66.4673 18.0342C66.2326 18.0342 66.0353 17.9702 65.8753 17.8422C65.7259 17.7142 65.6513 17.5222 65.6513 17.2662V10.7702C65.6513 10.5142 65.7259 10.3222 65.8753 10.1942C66.0353 10.0555 66.2326 9.98616 66.4673 9.98616C66.7019 9.98616 66.8939 10.0555 67.0433 10.1942C67.1926 10.3222 67.2673 10.5142 67.2673 10.7702V17.2662C67.2673 17.5222 67.1926 17.7142 67.0433 17.8422C66.8939 17.9702 66.7019 18.0342 66.4673 18.0342ZM66.4673 8.41816C66.1579 8.41816 65.9126 8.33283 65.7313 8.16216C65.5499 7.9915 65.4593 7.7675 65.4593 7.49016C65.4593 7.21283 65.5499 6.99416 65.7313 6.83416C65.9126 6.6635 66.1579 6.57816 66.4673 6.57816C66.7659 6.57816 67.0059 6.6635 67.1873 6.83416C67.3793 6.99416 67.4753 7.21283 67.4753 7.49016C67.4753 7.7675 67.3846 7.9915 67.2033 8.16216C67.0219 8.33283 66.7766 8.41816 66.4673 8.41816ZM75.7983 8.41816C75.4889 8.41816 75.2436 8.33283 75.0623 8.16216C74.8809 7.9915 74.7903 7.7675 74.7903 7.49016C74.7903 7.21283 74.8809 6.99416 75.0623 6.83416C75.2436 6.6635 75.4889 6.57816 75.7983 6.57816C76.0969 6.57816 76.3369 6.6635 76.5183 6.83416C76.7103 6.99416 76.8063 7.21283 76.8063 7.49016C76.8063 7.7675 76.7156 7.9915 76.5343 8.16216C76.3529 8.33283 76.1076 8.41816 75.7983 8.41816ZM75.8943 10.1462C76.1183 10.1462 76.2889 10.2048 76.4062 10.3222C76.5343 10.4288 76.5983 10.5782 76.5983 10.7702V17.2662C76.5983 17.5222 76.5236 17.7142 76.3743 17.8422C76.2249 17.9702 76.0329 18.0342 75.7983 18.0342C75.5636 18.0342 75.3663 17.9702 75.2063 17.8422C75.0569 17.7142 74.9823 17.5222 74.9823 17.2662V11.3942H71.6383V17.2502C71.6383 17.5062 71.5583 17.7035 71.3983 17.8422C71.2489 17.9702 71.0569 18.0342 70.8223 18.0342C70.5876 18.0342 70.3956 17.9702 70.2463 17.8422C70.0969 17.7035 70.0223 17.5062 70.0223 17.2502V11.3942H69.0623C68.8383 11.3942 68.6623 11.3408 68.5343 11.2342C68.4169 11.1168 68.3582 10.9622 68.3582 10.7702C68.3582 10.5782 68.4169 10.4288 68.5343 10.3222C68.6623 10.2048 68.8383 10.1462 69.0623 10.1462H70.0223V9.97016C70.0223 8.98883 70.2729 8.22083 70.7743 7.66616C71.2756 7.10083 71.9849 6.7755 72.9023 6.69016L73.2863 6.65816L73.4943 6.64216C73.9636 6.64216 74.1983 6.8395 74.1983 7.23416C74.1983 7.6075 73.9903 7.82083 73.5743 7.87416L73.2063 7.90616C72.6729 7.94883 72.2783 8.1195 72.0223 8.41816C71.7663 8.70616 71.6383 9.13283 71.6383 9.69816V10.1462H75.8943ZM82.1984 18.0662C81.441 18.0662 80.7744 17.9008 80.1984 17.5702C79.633 17.2395 79.1904 16.7702 78.8704 16.1622C78.561 15.5542 78.4064 14.8502 78.4064 14.0502C78.4064 13.2395 78.5664 12.5248 78.8864 11.9062C79.217 11.2875 79.6757 10.8075 80.2624 10.4662C80.849 10.1248 81.521 9.95416 82.2784 9.95416C82.6837 9.95416 83.089 10.0128 83.4944 10.1302C83.9104 10.2475 84.2784 10.4075 84.5984 10.6102C84.9397 10.8448 85.1104 11.1168 85.1104 11.4262C85.1104 11.6075 85.0624 11.7622 84.9664 11.8902C84.8704 12.0075 84.7477 12.0662 84.5984 12.0662C84.5024 12.0662 84.4064 12.0448 84.3104 12.0022C84.2144 11.9488 84.0917 11.8742 83.9424 11.7782C83.6757 11.6075 83.425 11.4795 83.1904 11.3942C82.9664 11.2982 82.6944 11.2502 82.3744 11.2502C81.649 11.2502 81.0837 11.4955 80.6784 11.9862C80.2837 12.4768 80.0864 13.1595 80.0864 14.0342C80.0864 14.9088 80.2837 15.5862 80.6784 16.0662C81.073 16.5355 81.633 16.7702 82.3584 16.7702C82.6784 16.7702 82.961 16.7222 83.2064 16.6262C83.4517 16.5302 83.7024 16.4022 83.9584 16.2422C84.0757 16.1675 84.193 16.1035 84.3104 16.0502C84.4277 15.9968 84.5344 15.9702 84.6304 15.9702C84.7797 15.9702 84.9024 16.0342 84.9984 16.1622C85.0944 16.2795 85.1424 16.4288 85.1424 16.6102C85.1424 16.7595 85.0997 16.8982 85.0144 17.0262C84.9397 17.1435 84.8064 17.2662 84.6144 17.3942C84.2944 17.6075 83.921 17.7728 83.4944 17.8902C83.0677 18.0075 82.6357 18.0662 82.1984 18.0662ZM89.8688 9.95416C90.9034 9.95416 91.6714 10.2155 92.1728 10.7382C92.6848 11.2608 92.9408 12.0555 92.9408 13.1222V17.2662C92.9408 17.5115 92.8714 17.7035 92.7328 17.8422C92.5941 17.9702 92.4021 18.0342 92.1568 18.0342C91.9221 18.0342 91.7354 17.9648 91.5968 17.8262C91.4581 17.6875 91.3888 17.5008 91.3888 17.2662V16.6742C91.1861 17.1222 90.8821 17.4688 90.4768 17.7142C90.0821 17.9488 89.6181 18.0662 89.0848 18.0662C88.5728 18.0662 88.1034 17.9648 87.6768 17.7622C87.2608 17.5488 86.9301 17.2608 86.6848 16.8982C86.4394 16.5355 86.3168 16.1248 86.3168 15.6662C86.3061 15.0902 86.4501 14.6422 86.7488 14.3222C87.0474 13.9915 87.5328 13.7568 88.2048 13.6182C88.8768 13.4688 89.8101 13.3942 91.0048 13.3942H91.3728V12.9302C91.3728 12.3328 91.2501 11.9008 91.0048 11.6342C90.7594 11.3675 90.3648 11.2342 89.8208 11.2342C89.4474 11.2342 89.0954 11.2822 88.7648 11.3782C88.4341 11.4742 88.0714 11.6128 87.6768 11.7942C87.3888 11.9542 87.1861 12.0342 87.0688 12.0342C86.9088 12.0342 86.7754 11.9755 86.6688 11.8582C86.5728 11.7408 86.5247 11.5915 86.5247 11.4102C86.5247 11.2502 86.5674 11.1115 86.6528 10.9942C86.7488 10.8662 86.8981 10.7435 87.1008 10.6262C87.4741 10.4235 87.9114 10.2635 88.4128 10.1462C88.9141 10.0182 89.3994 9.95416 89.8688 9.95416ZM89.3728 16.8662C89.9594 16.8662 90.4394 16.6688 90.8128 16.2742C91.1861 15.8688 91.3728 15.3515 91.3728 14.7222V14.3062H91.0848C90.2528 14.3062 89.6128 14.3435 89.1648 14.4182C88.7168 14.4928 88.3968 14.6208 88.2048 14.8022C88.0128 14.9728 87.9168 15.2235 87.9168 15.5542C87.9168 15.9382 88.0554 16.2528 88.3328 16.4982C88.6101 16.7435 88.9568 16.8662 89.3728 16.8662ZM98.9753 16.8022C99.2099 16.8235 99.3753 16.8875 99.4713 16.9942C99.5779 17.0902 99.6313 17.2288 99.6313 17.4102C99.6313 17.6235 99.5459 17.7888 99.3753 17.9062C99.2153 18.0128 98.9753 18.0555 98.6553 18.0342L98.2233 18.0022C97.3593 17.9382 96.7139 17.6768 96.2873 17.2182C95.8606 16.7488 95.6473 16.0608 95.6473 15.1542V11.3942H94.6873C94.2179 11.3942 93.9832 11.1862 93.9832 10.7702C93.9832 10.5782 94.0419 10.4288 94.1593 10.3222C94.2873 10.2048 94.4633 10.1462 94.6873 10.1462H95.6473V8.49816C95.6473 8.25283 95.7166 8.06083 95.8553 7.92216C96.0046 7.7835 96.2019 7.71416 96.4473 7.71416C96.6926 7.71416 96.8899 7.7835 97.0393 7.92216C97.1886 8.06083 97.2633 8.25283 97.2633 8.49816V10.1462H98.8473C99.0713 10.1462 99.2419 10.2048 99.3593 10.3222C99.4873 10.4288 99.5513 10.5782 99.5513 10.7702C99.5513 10.9728 99.4873 11.1275 99.3593 11.2342C99.2419 11.3408 99.0713 11.3942 98.8473 11.3942H97.2633V15.2662C97.2633 15.7675 97.3646 16.1355 97.5673 16.3702C97.7806 16.6048 98.1006 16.7382 98.5273 16.7702L98.9753 16.8022ZM101.608 18.0342C101.373 18.0342 101.176 17.9702 101.016 17.8422C100.867 17.7142 100.792 17.5222 100.792 17.2662V10.7702C100.792 10.5142 100.867 10.3222 101.016 10.1942C101.176 10.0555 101.373 9.98616 101.608 9.98616C101.843 9.98616 102.035 10.0555 102.184 10.1942C102.333 10.3222 102.408 10.5142 102.408 10.7702V17.2662C102.408 17.5222 102.333 17.7142 102.184 17.8422C102.035 17.9702 101.843 18.0342 101.608 18.0342ZM101.608 8.41816C101.299 8.41816 101.053 8.33283 100.872 8.16216C100.691 7.9915 100.6 7.7675 100.6 7.49016C100.6 7.21283 100.691 6.99416 100.872 6.83416C101.053 6.6635 101.299 6.57816 101.608 6.57816C101.907 6.57816 102.147 6.6635 102.328 6.83416C102.52 6.99416 102.616 7.21283 102.616 7.49016C102.616 7.7675 102.525 7.9915 102.344 8.16216C102.163 8.33283 101.917 8.41816 101.608 8.41816ZM108.059 18.0662C107.291 18.0662 106.614 17.9008 106.027 17.5702C105.451 17.2395 105.003 16.7702 104.683 16.1622C104.374 15.5435 104.219 14.8288 104.219 14.0182C104.219 13.1968 104.374 12.4822 104.683 11.8742C105.003 11.2555 105.451 10.7808 106.027 10.4502C106.614 10.1195 107.291 9.95416 108.059 9.95416C108.827 9.95416 109.499 10.1195 110.075 10.4502C110.662 10.7808 111.11 11.2555 111.419 11.8742C111.739 12.4822 111.899 13.1968 111.899 14.0182C111.899 14.8288 111.739 15.5435 111.419 16.1622C111.11 16.7702 110.662 17.2395 110.075 17.5702C109.499 17.9008 108.827 18.0662 108.059 18.0662ZM108.059 16.7862C108.774 16.7862 109.318 16.5515 109.691 16.0822C110.075 15.6128 110.267 14.9248 110.267 14.0182C110.267 13.1222 110.075 12.4395 109.691 11.9702C109.307 11.4902 108.763 11.2502 108.059 11.2502C107.355 11.2502 106.811 11.4902 106.427 11.9702C106.043 12.4395 105.851 13.1222 105.851 14.0182C105.851 14.9248 106.038 15.6128 106.411 16.0822C106.795 16.5515 107.344 16.7862 108.059 16.7862ZM117.906 9.95416C119.773 9.95416 120.706 11.0048 120.706 13.1062V17.2662C120.706 17.5115 120.631 17.7035 120.482 17.8422C120.343 17.9702 120.146 18.0342 119.89 18.0342C119.645 18.0342 119.447 17.9648 119.298 17.8262C119.159 17.6875 119.09 17.5008 119.09 17.2662V13.1862C119.09 12.5248 118.957 12.0395 118.69 11.7302C118.434 11.4208 118.029 11.2662 117.474 11.2662C116.823 11.2662 116.301 11.4688 115.906 11.8742C115.511 12.2795 115.314 12.8235 115.314 13.5062V17.2662C115.314 17.5008 115.239 17.6875 115.09 17.8262C114.951 17.9648 114.759 18.0342 114.514 18.0342C114.269 18.0342 114.071 17.9648 113.922 17.8262C113.773 17.6875 113.698 17.5008 113.698 17.2662V10.7542C113.698 10.5302 113.773 10.3488 113.922 10.2102C114.082 10.0608 114.279 9.98616 114.514 9.98616C114.749 9.98616 114.935 10.0555 115.074 10.1942C115.213 10.3328 115.282 10.5142 115.282 10.7382V11.3942C115.538 10.9248 115.895 10.5675 116.354 10.3222C116.813 10.0768 117.33 9.95416 117.906 9.95416Z" fill="#030229"/>
<g opacity="0.4">
<path fill-rule="evenodd" clip-rule="evenodd" d="M18.7071 9.81964C18.7071 11.2027 19.039 12.0179 19.7695 12.9574C20.3231 13.6495 20.5 14.5379 20.5 15.5017C20.5 16.4644 20.2128 17.3784 19.6373 18.1204C18.884 19.0099 17.8215 19.5778 16.7372 19.6765C15.1659 19.824 13.5937 19.9482 12.0005 19.9482C10.4063 19.9482 8.83505 19.8739 7.26375 19.6765C6.17846 19.5778 5.11602 19.0099 4.36367 18.1204C3.78822 17.3784 3.5 16.4644 3.5 15.5017C3.5 14.5379 3.6779 13.6495 4.23049 12.9574C4.98384 12.0179 5.29392 11.2027 5.29392 9.81964V9.35048C5.29392 7.49823 5.71333 6.28706 6.577 5.1014C7.86106 3.37227 9.91935 2.33524 11.9558 2.33524H12.0452C14.1254 2.33524 16.2502 3.42218 17.5125 5.22563C18.3314 6.38688 18.7071 7.54703 18.7071 9.35048V9.81964ZM9.07367 22.2246C9.07367 21.67 9.53582 21.416 9.96318 21.3073C10.4631 21.1909 13.5093 21.1909 14.0092 21.3073C14.4365 21.416 14.8987 21.67 14.8987 22.2246C14.8738 22.7525 14.5926 23.2206 14.204 23.5178C13.7001 23.9504 13.1087 24.2243 12.4906 24.323C12.1487 24.3718 11.8128 24.3729 11.4828 24.323C10.8636 24.2243 10.2723 23.9504 9.76937 23.5167C9.37978 23.2206 9.09852 22.7525 9.07367 22.2246Z" fill="#030229"/>
</g>
</svg>
