<svg width="106" height="27" viewBox="0 0 106 27" fill="none" xmlns="http://www.w3.org/2000/svg">
<path opacity="0.5" d="M43.04 18.4012C42.2293 18.4012 41.456 18.2892 40.72 18.0652C39.9947 17.8412 39.4133 17.5318 38.976 17.1372C38.7733 16.9665 38.672 16.7478 38.672 16.4812C38.672 16.2892 38.7253 16.1292 38.832 16.0012C38.9387 15.8625 39.0667 15.7932 39.216 15.7932C39.3653 15.7932 39.5467 15.8625 39.76 16.0012C40.7093 16.7052 41.792 17.0572 43.008 17.0572C43.8613 17.0572 44.5173 16.8972 44.976 16.5772C45.4347 16.2572 45.664 15.7985 45.664 15.2012C45.664 14.7318 45.4507 14.3798 45.024 14.1452C44.5973 13.9105 43.9147 13.6865 42.976 13.4732C42.08 13.2812 41.344 13.0625 40.768 12.8172C40.192 12.5718 39.7387 12.2412 39.408 11.8252C39.088 11.3985 38.928 10.8598 38.928 10.2092C38.928 9.5585 39.104 8.9825 39.456 8.48116C39.8187 7.96916 40.32 7.5745 40.96 7.29716C41.6 7.00916 42.3307 6.86516 43.152 6.86516C43.9093 6.86516 44.608 6.97183 45.248 7.18516C45.888 7.3985 46.432 7.71316 46.88 8.12916C47.0933 8.3105 47.2 8.52916 47.2 8.78516C47.2 8.9665 47.1413 9.1265 47.024 9.26516C46.9173 9.40383 46.7893 9.47316 46.64 9.47316C46.5013 9.47316 46.3253 9.40383 46.112 9.26516C45.6213 8.89183 45.1573 8.62516 44.72 8.46516C44.2933 8.2945 43.776 8.20916 43.168 8.20916C42.3467 8.20916 41.7067 8.37983 41.248 8.72116C40.7893 9.05183 40.56 9.51583 40.56 10.1132C40.56 10.6252 40.7627 11.0145 41.168 11.2812C41.5733 11.5372 42.224 11.7718 43.12 11.9852C44.0587 12.1985 44.816 12.4225 45.392 12.6572C45.9787 12.8812 46.4427 13.1958 46.784 13.6012C47.136 13.9958 47.312 14.5078 47.312 15.1372C47.312 15.7772 47.1307 16.3478 46.768 16.8492C46.416 17.3398 45.9147 17.7238 45.264 18.0012C44.624 18.2678 43.8827 18.4012 43.04 18.4012ZM52.4953 18.3852C51.7379 18.3852 51.0713 18.2198 50.4953 17.8892C49.9299 17.5585 49.4873 17.0892 49.1673 16.4812C48.8579 15.8732 48.7033 15.1692 48.7033 14.3692C48.7033 13.5585 48.8633 12.8438 49.1833 12.2252C49.5139 11.6065 49.9726 11.1265 50.5593 10.7852C51.1459 10.4438 51.8179 10.2732 52.5753 10.2732C52.9806 10.2732 53.3859 10.3318 53.7913 10.4492C54.2073 10.5665 54.5753 10.7265 54.8953 10.9292C55.2366 11.1638 55.4073 11.4358 55.4073 11.7452C55.4073 11.9265 55.3593 12.0812 55.2633 12.2092C55.1673 12.3265 55.0446 12.3852 54.8953 12.3852C54.7993 12.3852 54.7033 12.3638 54.6073 12.3212C54.5113 12.2678 54.3886 12.1932 54.2393 12.0972C53.9726 11.9265 53.7219 11.7985 53.4873 11.7132C53.2633 11.6172 52.9913 11.5692 52.6713 11.5692C51.9459 11.5692 51.3806 11.8145 50.9753 12.3052C50.5806 12.7958 50.3832 13.4785 50.3832 14.3532C50.3832 15.2278 50.5806 15.9052 50.9753 16.3852C51.3699 16.8545 51.9299 17.0892 52.6553 17.0892C52.9753 17.0892 53.2579 17.0412 53.5033 16.9452C53.7486 16.8492 53.9993 16.7212 54.2553 16.5612C54.3726 16.4865 54.4899 16.4225 54.6073 16.3692C54.7246 16.3158 54.8313 16.2892 54.9273 16.2892C55.0766 16.2892 55.1993 16.3532 55.2953 16.4812C55.3913 16.5985 55.4393 16.7478 55.4393 16.9292C55.4393 17.0785 55.3966 17.2172 55.3113 17.3452C55.2366 17.4625 55.1033 17.5852 54.9113 17.7132C54.5913 17.9265 54.2179 18.0918 53.7913 18.2092C53.3646 18.3265 52.9326 18.3852 52.4953 18.3852ZM61.1096 10.2732C62.9656 10.2732 63.8936 11.3238 63.8936 13.4252V17.5852C63.8936 17.8198 63.819 18.0065 63.6696 18.1452C63.5203 18.2838 63.323 18.3532 63.0776 18.3532C62.8323 18.3532 62.635 18.2838 62.4856 18.1452C62.347 18.0065 62.2776 17.8198 62.2776 17.5852V13.4412C62.2776 12.8012 62.1443 12.3318 61.8776 12.0332C61.6216 11.7345 61.2163 11.5852 60.6616 11.5852C60.011 11.5852 59.4883 11.7878 59.0936 12.1932C58.699 12.5985 58.5016 13.1425 58.5016 13.8252V17.5852C58.5016 17.8198 58.427 18.0065 58.2776 18.1452C58.139 18.2838 57.947 18.3532 57.7016 18.3532C57.4563 18.3532 57.259 18.2838 57.1096 18.1452C56.9603 18.0065 56.8856 17.8198 56.8856 17.5852V7.68116C56.8856 7.4465 56.9603 7.25983 57.1096 7.12116C57.2696 6.9825 57.4723 6.91316 57.7176 6.91316C57.9523 6.91316 58.139 6.9825 58.2776 7.12116C58.427 7.24916 58.5016 7.42516 58.5016 7.64916V11.6492C58.7683 11.2012 59.1256 10.8598 59.5736 10.6252C60.0216 10.3905 60.5336 10.2732 61.1096 10.2732ZM72.2164 16.3052C72.3657 16.3052 72.4884 16.3638 72.5844 16.4812C72.6804 16.5985 72.7284 16.7478 72.7284 16.9292C72.7284 17.2385 72.5364 17.4998 72.1524 17.7132C71.779 17.9265 71.3684 18.0918 70.9204 18.2092C70.483 18.3265 70.0617 18.3852 69.6564 18.3852C68.419 18.3852 67.443 18.0278 66.7284 17.3132C66.0137 16.5878 65.6564 15.6012 65.6564 14.3532C65.6564 13.5532 65.811 12.8438 66.1204 12.2252C66.4404 11.6065 66.883 11.1265 67.4484 10.7852C68.0244 10.4438 68.675 10.2732 69.4004 10.2732C70.4457 10.2732 71.2724 10.6092 71.8804 11.2812C72.4884 11.9532 72.7924 12.8598 72.7924 14.0012C72.7924 14.4278 72.6004 14.6412 72.2164 14.6412H67.2724C67.379 16.2945 68.1737 17.1212 69.6564 17.1212C70.051 17.1212 70.3924 17.0678 70.6804 16.9612C70.9684 16.8545 71.2724 16.7158 71.5924 16.5452C71.6244 16.5238 71.7097 16.4812 71.8484 16.4172C71.9977 16.3425 72.1204 16.3052 72.2164 16.3052ZM69.4324 11.4572C68.8137 11.4572 68.3177 11.6545 67.9444 12.0492C67.571 12.4438 67.347 12.9985 67.2724 13.7132H71.4004C71.3684 12.9878 71.1817 12.4332 70.8404 12.0492C70.5097 11.6545 70.0404 11.4572 69.4324 11.4572ZM80.9571 6.91316C81.2025 6.91316 81.3998 6.9825 81.5491 7.12116C81.6985 7.25983 81.7731 7.4465 81.7731 7.68116V17.5692C81.7731 17.8145 81.6985 18.0065 81.5491 18.1452C81.4105 18.2838 81.2185 18.3532 80.9731 18.3532C80.7278 18.3532 80.5305 18.2838 80.3811 18.1452C80.2425 18.0065 80.1731 17.8145 80.1731 17.5692V16.9292C79.9385 17.3985 79.5971 17.7612 79.1491 18.0172C78.7011 18.2625 78.1838 18.3852 77.5971 18.3852C76.9251 18.3852 76.3225 18.2145 75.7891 17.8732C75.2665 17.5318 74.8558 17.0518 74.5571 16.4332C74.2691 15.8145 74.1251 15.1052 74.1251 14.3052C74.1251 13.4945 74.2691 12.7852 74.5571 12.1772C74.8558 11.5692 75.2665 11.0998 75.7891 10.7692C76.3118 10.4385 76.9145 10.2732 77.5971 10.2732C78.1838 10.2732 78.6958 10.4012 79.1331 10.6572C79.5811 10.9025 79.9225 11.2545 80.1571 11.7132V7.64916C80.1571 7.42516 80.2265 7.24916 80.3651 7.12116C80.5145 6.9825 80.7118 6.91316 80.9571 6.91316ZM77.9811 17.1052C78.6745 17.1052 79.2131 16.8652 79.5971 16.3852C79.9811 15.9052 80.1731 15.2225 80.1731 14.3372C80.1731 13.4518 79.9811 12.7692 79.5971 12.2892C79.2238 11.8092 78.6851 11.5692 77.9811 11.5692C77.2771 11.5692 76.7278 11.8092 76.3331 12.2892C75.9491 12.7585 75.7571 13.4305 75.7571 14.3052C75.7571 15.1798 75.9545 15.8678 76.3491 16.3692C76.7438 16.8598 77.2878 17.1052 77.9811 17.1052ZM90.0743 10.3052C90.3196 10.3052 90.5116 10.3745 90.6503 10.5132C90.7996 10.6518 90.8743 10.8438 90.8743 11.0892V17.6012C90.8743 17.8252 90.7996 18.0065 90.6503 18.1452C90.5009 18.2838 90.3036 18.3532 90.0583 18.3532C89.8343 18.3532 89.6529 18.2892 89.5143 18.1612C89.3756 18.0225 89.3063 17.8412 89.3063 17.6172V17.0092C89.0609 17.4572 88.7196 17.7985 88.2823 18.0332C87.8556 18.2678 87.3756 18.3852 86.8423 18.3852C84.9436 18.3852 83.9943 17.3398 83.9943 15.2492V11.0892C83.9943 10.8438 84.0636 10.6518 84.2023 10.5132C84.3516 10.3745 84.5543 10.3052 84.8103 10.3052C85.0556 10.3052 85.2476 10.3745 85.3863 10.5132C85.5356 10.6518 85.6103 10.8438 85.6103 11.0892V15.2332C85.6103 15.8625 85.7383 16.3265 85.9943 16.6252C86.2503 16.9238 86.6449 17.0732 87.1783 17.0732C87.8076 17.0732 88.3089 16.8705 88.6823 16.4652C89.0663 16.0598 89.2583 15.5212 89.2583 14.8492V11.0892C89.2583 10.8545 89.3329 10.6678 89.4823 10.5292C89.6316 10.3798 89.8289 10.3052 90.0743 10.3052ZM93.9516 18.3532C93.717 18.3532 93.5196 18.2892 93.3596 18.1612C93.2103 18.0332 93.1356 17.8412 93.1356 17.5852V7.69716C93.1356 7.44116 93.2103 7.24916 93.3596 7.12116C93.5196 6.9825 93.717 6.91316 93.9516 6.91316C94.1863 6.91316 94.3783 6.9825 94.5276 7.12116C94.677 7.24916 94.7516 7.44116 94.7516 7.69716V17.5852C94.7516 17.8412 94.677 18.0332 94.5276 18.1612C94.3783 18.2892 94.1863 18.3532 93.9516 18.3532ZM103.123 16.3052C103.272 16.3052 103.395 16.3638 103.491 16.4812C103.587 16.5985 103.635 16.7478 103.635 16.9292C103.635 17.2385 103.443 17.4998 103.059 17.7132C102.685 17.9265 102.275 18.0918 101.827 18.2092C101.389 18.3265 100.968 18.3852 100.563 18.3852C99.3253 18.3852 98.3493 18.0278 97.6346 17.3132C96.92 16.5878 96.5626 15.6012 96.5626 14.3532C96.5626 13.5532 96.7173 12.8438 97.0266 12.2252C97.3466 11.6065 97.7893 11.1265 98.3546 10.7852C98.9306 10.4438 99.5813 10.2732 100.307 10.2732C101.352 10.2732 102.179 10.6092 102.787 11.2812C103.395 11.9532 103.699 12.8598 103.699 14.0012C103.699 14.4278 103.507 14.6412 103.123 14.6412H98.1786C98.2853 16.2945 99.08 17.1212 100.563 17.1212C100.957 17.1212 101.299 17.0678 101.587 16.9612C101.875 16.8545 102.179 16.7158 102.499 16.5452C102.531 16.5238 102.616 16.4812 102.755 16.4172C102.904 16.3425 103.027 16.3052 103.123 16.3052ZM100.339 11.4572C99.72 11.4572 99.224 11.6545 98.8506 12.0492C98.4773 12.4438 98.2533 12.9985 98.1786 13.7132H102.307C102.275 12.9878 102.088 12.4332 101.747 12.0492C101.416 11.6545 100.947 11.4572 100.339 11.4572Z" fill="#030229"/>
<g opacity="0.4">
<path fill-rule="evenodd" clip-rule="evenodd" d="M7.81 2.47565H16.191C19.28 2.47565 21 4.43586 21 7.79464V19.1705C21 22.5843 19.28 24.5005 16.191 24.5005H7.81C4.77 24.5005 3 22.5843 3 19.1705V7.79464C3 4.43586 4.77 2.47565 7.81 2.47565ZM8.07996 7.60743V7.59642H11.069C11.5 7.59642 11.85 7.98185 11.85 8.45429C11.85 8.93993 11.5 9.32537 11.069 9.32537H8.07996C7.64896 9.32537 7.29996 8.93994 7.29996 8.4664C7.29996 7.99287 7.64896 7.60743 8.07996 7.60743ZM8.08005 14.303H15.92C16.35 14.303 16.7 13.9176 16.7 13.444C16.7 12.9705 16.35 12.5839 15.92 12.5839H8.08005C7.64905 12.5839 7.30005 12.9705 7.30005 13.444C7.30005 13.9176 7.64905 14.303 8.08005 14.303ZM8.07996 19.3357H15.92C16.319 19.2916 16.62 18.9161 16.62 18.4767C16.62 18.0252 16.319 17.6508 15.92 17.6067H8.07996C7.77996 17.5737 7.48996 17.7278 7.32996 18.0142C7.16996 18.2895 7.16996 18.6529 7.32996 18.9392C7.48996 19.2145 7.77996 19.3797 8.07996 19.3357Z" fill="#030229"/>
</g>
</svg>
