<svg width="20" height="23" viewBox="0 0 20 23" fill="none" xmlns="http://www.w3.org/2000/svg">
<path fill-rule="evenodd" clip-rule="evenodd" d="M18.4023 13.5175C18.7599 13.7268 19.0359 14.0572 19.23 14.3875C19.6082 15.0703 19.5775 15.9072 19.2096 16.6451L18.4942 17.9666C18.1161 18.6714 17.411 19.1119 16.6854 19.1119C16.3277 19.1119 15.9291 19.0017 15.6021 18.7815C15.3364 18.5943 15.0298 18.5282 14.7028 18.5282C13.691 18.5282 12.8428 19.4422 12.8121 20.5325C12.8121 21.7989 11.8719 22.79 10.6967 22.79H9.30683C8.12136 22.79 7.18116 21.7989 7.18116 20.5325C7.16072 19.4422 6.3125 18.5282 5.30076 18.5282C4.96351 18.5282 4.65693 18.5943 4.40144 18.7815C4.07441 19.0017 3.66563 19.1119 3.31816 19.1119C2.58235 19.1119 1.8772 18.6714 1.49908 17.9666L0.793928 16.6451C0.415804 15.9293 0.395365 15.0703 0.773489 14.3875C0.937002 14.0572 1.24359 13.7268 1.59106 13.5175C1.8772 13.3634 2.06116 13.1101 2.23489 12.8128C2.74587 11.8657 2.43928 10.6213 1.57062 10.0596C0.558878 9.43194 0.231852 8.03336 0.814367 6.94313L1.49908 5.64367C2.09181 4.55344 3.35904 4.168 4.381 4.80672C5.2701 5.33532 6.42491 4.98292 6.94611 4.04687C7.10962 3.73852 7.2016 3.40815 7.18116 3.07777C7.16072 2.64829 7.27314 2.24083 7.46731 1.91046C7.84543 1.22769 8.53015 0.787192 9.27617 0.765167H10.7171C11.4734 0.765167 12.1581 1.22769 12.5362 1.91046C12.7202 2.24083 12.8428 2.64829 12.8121 3.07777C12.7917 3.40815 12.8837 3.73852 13.0472 4.04687C13.5684 4.98292 14.7232 5.33532 15.6225 4.80672C16.6343 4.168 17.9117 4.55344 18.4942 5.64367L19.1789 6.94313C19.7717 8.03336 19.4447 9.43194 18.4227 10.0596C17.554 10.6213 17.2474 11.8657 17.7686 12.8128C17.9322 13.1101 18.1161 13.3634 18.4023 13.5175ZM7.10962 11.7886C7.10962 13.5176 8.40751 14.8941 10.012 14.8941C11.6165 14.8941 12.8837 13.5176 12.8837 11.7886C12.8837 10.0597 11.6165 8.67209 10.012 8.67209C8.40751 8.67209 7.10962 10.0597 7.10962 11.7886Z" fill="#030229"/>
</svg>
