<svg width="99" height="27" viewBox="0 0 99 27" fill="none" xmlns="http://www.w3.org/2000/svg">
<path opacity="0.5" d="M43.04 19.0449C42.2293 19.0449 41.456 18.9329 40.72 18.7089C39.9947 18.4849 39.4133 18.1756 38.976 17.7809C38.7733 17.6102 38.672 17.3916 38.672 17.1249C38.672 16.9329 38.7253 16.7729 38.832 16.6449C38.9387 16.5062 39.0667 16.4369 39.216 16.4369C39.3653 16.4369 39.5467 16.5062 39.76 16.6449C40.7093 17.3489 41.792 17.7009 43.008 17.7009C43.8613 17.7009 44.5173 17.5409 44.976 17.2209C45.4347 16.9009 45.664 16.4422 45.664 15.8449C45.664 15.3756 45.4507 15.0236 45.024 14.7889C44.5973 14.5542 43.9147 14.3302 42.976 14.1169C42.08 13.9249 41.344 13.7062 40.768 13.4609C40.192 13.2156 39.7387 12.8849 39.408 12.4689C39.088 12.0422 38.928 11.5036 38.928 10.8529C38.928 10.2022 39.104 9.62623 39.456 9.1249C39.8187 8.6129 40.32 8.21823 40.96 7.9409C41.6 7.6529 42.3307 7.5089 43.152 7.5089C43.9093 7.5089 44.608 7.61557 45.248 7.8289C45.888 8.04223 46.432 8.3569 46.88 8.7729C47.0933 8.95423 47.2 9.1729 47.2 9.4289C47.2 9.61023 47.1413 9.77023 47.024 9.9089C46.9173 10.0476 46.7893 10.1169 46.64 10.1169C46.5013 10.1169 46.3253 10.0476 46.112 9.9089C45.6213 9.53557 45.1573 9.2689 44.72 9.1089C44.2933 8.93823 43.776 8.8529 43.168 8.8529C42.3467 8.8529 41.7067 9.02357 41.248 9.3649C40.7893 9.69557 40.56 10.1596 40.56 10.7569C40.56 11.2689 40.7627 11.6582 41.168 11.9249C41.5733 12.1809 42.224 12.4156 43.12 12.6289C44.0587 12.8422 44.816 13.0662 45.392 13.3009C45.9787 13.5249 46.4427 13.8396 46.784 14.2449C47.136 14.6396 47.312 15.1516 47.312 15.7809C47.312 16.4209 47.1307 16.9916 46.768 17.4929C46.416 17.9836 45.9147 18.3676 45.264 18.6449C44.624 18.9116 43.8827 19.0449 43.04 19.0449ZM55.2633 16.9489C55.4126 16.9489 55.5353 17.0076 55.6313 17.1249C55.7273 17.2422 55.7753 17.3916 55.7753 17.5729C55.7753 17.8822 55.5833 18.1436 55.1993 18.3569C54.8259 18.5702 54.4153 18.7356 53.9673 18.8529C53.5299 18.9702 53.1086 19.0289 52.7033 19.0289C51.4659 19.0289 50.4899 18.6716 49.7753 17.9569C49.0606 17.2316 48.7033 16.2449 48.7033 14.9969C48.7033 14.1969 48.8579 13.4876 49.1673 12.8689C49.4873 12.2502 49.9299 11.7702 50.4953 11.4289C51.0713 11.0876 51.7219 10.9169 52.4473 10.9169C53.4926 10.9169 54.3193 11.2529 54.9273 11.9249C55.5353 12.5969 55.8393 13.5036 55.8393 14.6449C55.8393 15.0716 55.6473 15.2849 55.2633 15.2849H50.3193C50.4259 16.9382 51.2206 17.7649 52.7033 17.7649C53.0979 17.7649 53.4393 17.7116 53.7273 17.6049C54.0153 17.4982 54.3193 17.3596 54.6393 17.1889C54.6713 17.1676 54.7566 17.1249 54.8953 17.0609C55.0446 16.9862 55.1673 16.9489 55.2633 16.9489ZM52.4793 12.1009C51.8606 12.1009 51.3646 12.2982 50.9913 12.6929C50.6179 13.0876 50.3939 13.6422 50.3193 14.3569H54.4473C54.4153 13.6316 54.2286 13.0769 53.8873 12.6929C53.5566 12.2982 53.0873 12.1009 52.4793 12.1009ZM61.3659 17.7649C61.6005 17.7862 61.7659 17.8502 61.8619 17.9569C61.9685 18.0529 62.0219 18.1916 62.0219 18.3729C62.0219 18.5862 61.9365 18.7516 61.7659 18.8689C61.6059 18.9756 61.3659 19.0182 61.0459 18.9969L60.6139 18.9649C59.7499 18.9009 59.1045 18.6396 58.6779 18.1809C58.2512 17.7116 58.0379 17.0236 58.0379 16.1169V12.3569H57.0779C56.6085 12.3569 56.3739 12.1489 56.3739 11.7329C56.3739 11.5409 56.4325 11.3916 56.5499 11.2849C56.6779 11.1676 56.8539 11.1089 57.0779 11.1089H58.0379V9.4609C58.0379 9.21557 58.1072 9.02357 58.2459 8.8849C58.3952 8.74623 58.5925 8.6769 58.8379 8.6769C59.0832 8.6769 59.2805 8.74623 59.4299 8.8849C59.5792 9.02357 59.6539 9.21557 59.6539 9.4609V11.1089H61.2379C61.4619 11.1089 61.6325 11.1676 61.7499 11.2849C61.8779 11.3916 61.9419 11.5409 61.9419 11.7329C61.9419 11.9356 61.8779 12.0902 61.7499 12.1969C61.6325 12.3036 61.4619 12.3569 61.2379 12.3569H59.6539V16.2289C59.6539 16.7302 59.7552 17.0982 59.9579 17.3329C60.1712 17.5676 60.4912 17.7009 60.9179 17.7329L61.3659 17.7649ZM66.9753 17.7649C67.2099 17.7862 67.3753 17.8502 67.4713 17.9569C67.5779 18.0529 67.6313 18.1916 67.6313 18.3729C67.6313 18.5862 67.5459 18.7516 67.3753 18.8689C67.2153 18.9756 66.9753 19.0182 66.6553 18.9969L66.2233 18.9649C65.3593 18.9009 64.7139 18.6396 64.2873 18.1809C63.8606 17.7116 63.6473 17.0236 63.6473 16.1169V12.3569H62.6873C62.2179 12.3569 61.9832 12.1489 61.9832 11.7329C61.9832 11.5409 62.0419 11.3916 62.1593 11.2849C62.2873 11.1676 62.4633 11.1089 62.6873 11.1089H63.6473V9.4609C63.6473 9.21557 63.7166 9.02357 63.8553 8.8849C64.0046 8.74623 64.2019 8.6769 64.4473 8.6769C64.6926 8.6769 64.8899 8.74623 65.0393 8.8849C65.1886 9.02357 65.2633 9.21557 65.2633 9.4609V11.1089H66.8473C67.0713 11.1089 67.2419 11.1676 67.3593 11.2849C67.4873 11.3916 67.5513 11.5409 67.5513 11.7329C67.5513 11.9356 67.4873 12.0902 67.3593 12.1969C67.2419 12.3036 67.0713 12.3569 66.8473 12.3569H65.2633V16.2289C65.2633 16.7302 65.3646 17.0982 65.5673 17.3329C65.7806 17.5676 66.1006 17.7009 66.5273 17.7329L66.9753 17.7649ZM69.6079 18.9969C69.3732 18.9969 69.1759 18.9329 69.0159 18.8049C68.8665 18.6769 68.7919 18.4849 68.7919 18.2289V11.7329C68.7919 11.4769 68.8665 11.2849 69.0159 11.1569C69.1759 11.0182 69.3732 10.9489 69.6079 10.9489C69.8425 10.9489 70.0345 11.0182 70.1839 11.1569C70.3332 11.2849 70.4079 11.4769 70.4079 11.7329V18.2289C70.4079 18.4849 70.3332 18.6769 70.1839 18.8049C70.0345 18.9329 69.8425 18.9969 69.6079 18.9969ZM69.6079 9.3809C69.2985 9.3809 69.0532 9.29557 68.8719 9.1249C68.6905 8.95423 68.5999 8.73023 68.5999 8.4529C68.5999 8.17557 68.6905 7.9569 68.8719 7.7969C69.0532 7.62623 69.2985 7.5409 69.6079 7.5409C69.9065 7.5409 70.1465 7.62623 70.3279 7.7969C70.5199 7.9569 70.6159 8.17557 70.6159 8.4529C70.6159 8.73023 70.5252 8.95423 70.3439 9.1249C70.1625 9.29557 69.9172 9.3809 69.6079 9.3809ZM76.8749 10.9169C78.7415 10.9169 79.6749 11.9676 79.6749 14.0689V18.2289C79.6749 18.4742 79.6002 18.6662 79.4509 18.8049C79.3122 18.9329 79.1149 18.9969 78.8589 18.9969C78.6135 18.9969 78.4162 18.9276 78.2669 18.7889C78.1282 18.6502 78.0589 18.4636 78.0589 18.2289V14.1489C78.0589 13.4876 77.9255 13.0022 77.6589 12.6929C77.4029 12.3836 76.9975 12.2289 76.4429 12.2289C75.7922 12.2289 75.2695 12.4316 74.8749 12.8369C74.4802 13.2422 74.2829 13.7862 74.2829 14.4689V18.2289C74.2829 18.4636 74.2082 18.6502 74.0589 18.7889C73.9202 18.9276 73.7282 18.9969 73.4829 18.9969C73.2375 18.9969 73.0402 18.9276 72.8909 18.7889C72.7415 18.6502 72.6669 18.4636 72.6669 18.2289V11.7169C72.6669 11.4929 72.7415 11.3116 72.8909 11.1729C73.0509 11.0236 73.2482 10.9489 73.4829 10.9489C73.7175 10.9489 73.9042 11.0182 74.0429 11.1569C74.1815 11.2956 74.2509 11.4769 74.2509 11.7009V12.3569C74.5069 11.8876 74.8642 11.5302 75.3229 11.2849C75.7815 11.0396 76.2989 10.9169 76.8749 10.9169ZM88.3496 10.9489C88.595 10.9489 88.787 11.0236 88.9256 11.1729C89.075 11.3116 89.1496 11.4982 89.1496 11.7329V18.2929C89.1496 19.4876 88.8296 20.3889 88.1896 20.9969C87.5603 21.6049 86.627 21.9089 85.3896 21.9089C84.2376 21.9089 83.2776 21.6902 82.5096 21.2529C82.115 21.0289 81.9176 20.7622 81.9176 20.4529C81.9176 20.2716 81.9656 20.1222 82.0616 20.0049C82.1683 19.8876 82.2963 19.8289 82.4456 19.8289C82.5843 19.8289 82.803 19.9089 83.1016 20.0689C83.4856 20.2502 83.843 20.3889 84.1736 20.4849C84.5043 20.5916 84.899 20.6449 85.3576 20.6449C86.8296 20.6449 87.5656 19.9036 87.5656 18.4209V17.1889C87.3416 17.6582 87.0003 18.0262 86.5416 18.2929C86.083 18.5489 85.5496 18.6769 84.9416 18.6769C84.259 18.6769 83.651 18.5169 83.1176 18.1969C82.5843 17.8769 82.1683 17.4236 81.8696 16.8369C81.5816 16.2502 81.4376 15.5729 81.4376 14.8049C81.4376 14.0369 81.587 13.3596 81.8856 12.7729C82.1843 12.1862 82.595 11.7329 83.1176 11.4129C83.651 11.0822 84.259 10.9169 84.9416 10.9169C85.539 10.9169 86.0616 11.0449 86.5096 11.3009C86.9683 11.5569 87.315 11.9196 87.5496 12.3889V11.7169C87.5496 11.4822 87.619 11.2956 87.7576 11.1569C87.907 11.0182 88.1043 10.9489 88.3496 10.9489ZM85.3256 17.3969C86.019 17.3969 86.563 17.1676 86.9576 16.7089C87.3523 16.2502 87.5496 15.6156 87.5496 14.8049C87.5496 14.0049 87.3523 13.3756 86.9576 12.9169C86.5736 12.4476 86.0296 12.2129 85.3256 12.2129C84.6216 12.2129 84.067 12.4422 83.6616 12.9009C83.267 13.3596 83.0696 13.9942 83.0696 14.8049C83.0696 15.6156 83.2723 16.2502 83.6776 16.7089C84.083 17.1676 84.6323 17.3969 85.3256 17.3969ZM94.1213 19.0289C93.0333 19.0289 92.1426 18.8049 91.4493 18.3569C91.2573 18.2396 91.1186 18.1169 91.0333 17.9889C90.9586 17.8609 90.9213 17.7169 90.9213 17.5569C90.9213 17.3862 90.9693 17.2422 91.0653 17.1249C91.1613 17.0076 91.2839 16.9489 91.4333 16.9489C91.5719 16.9489 91.7906 17.0342 92.0893 17.2049C92.4093 17.3756 92.7186 17.5142 93.0173 17.6209C93.3266 17.7276 93.7106 17.7809 94.1693 17.7809C94.6813 17.7809 95.0813 17.6902 95.3693 17.5089C95.6573 17.3276 95.8013 17.0716 95.8013 16.7409C95.8013 16.5276 95.7426 16.3569 95.6253 16.2289C95.5186 16.1009 95.3266 15.9889 95.0493 15.8929C94.7719 15.7862 94.3613 15.6742 93.8173 15.5569C92.8786 15.3542 92.2013 15.0822 91.7853 14.7409C91.3799 14.3889 91.1773 13.9142 91.1773 13.3169C91.1773 12.8582 91.3106 12.4476 91.5773 12.0849C91.8439 11.7116 92.2119 11.4236 92.6813 11.2209C93.1506 11.0182 93.6839 10.9169 94.2812 10.9169C94.7079 10.9169 95.1239 10.9756 95.5293 11.0929C95.9346 11.1996 96.2919 11.3596 96.6013 11.5729C96.9533 11.8076 97.1293 12.0796 97.1293 12.3889C97.1293 12.5596 97.0759 12.7036 96.9693 12.8209C96.8733 12.9382 96.7559 12.9969 96.6173 12.9969C96.5213 12.9969 96.4253 12.9756 96.3293 12.9329C96.2333 12.8902 96.1053 12.8209 95.9453 12.7249C95.6573 12.5542 95.3853 12.4209 95.1293 12.3249C94.8839 12.2289 94.5746 12.1809 94.2013 12.1809C93.7533 12.1809 93.3906 12.2769 93.1133 12.4689C92.8466 12.6609 92.7133 12.9222 92.7133 13.2529C92.7133 13.5516 92.8359 13.7862 93.0813 13.9569C93.3373 14.1169 93.8119 14.2716 94.5052 14.4209C95.2199 14.5702 95.7799 14.7409 96.1853 14.9329C96.5906 15.1249 96.8786 15.3649 97.0493 15.6529C97.2306 15.9302 97.3213 16.2876 97.3213 16.7249C97.3213 17.4182 97.0279 17.9782 96.4413 18.4049C95.8653 18.8209 95.0919 19.0289 94.1213 19.0289Z" fill="#030229"/>
<g opacity="0.4">
<path fill-rule="evenodd" clip-rule="evenodd" d="M20.4023 15.5175C20.76 15.7268 21.036 16.0572 21.2301 16.3875C21.6083 17.0703 21.5776 17.9072 21.2097 18.6451L20.4943 19.9666C20.1162 20.6714 19.411 21.1119 18.6855 21.1119C18.3278 21.1119 17.9292 21.0017 17.6022 20.7815C17.3365 20.5943 17.0299 20.5282 16.7029 20.5282C15.6911 20.5282 14.8429 21.4422 14.8122 22.5325C14.8122 23.7989 13.872 24.79 12.6968 24.79H11.3069C10.1215 24.79 9.18125 23.7989 9.18125 22.5325C9.16081 21.4422 8.31259 20.5282 7.30085 20.5282C6.96361 20.5282 6.65702 20.5943 6.40153 20.7815C6.0745 21.0017 5.66572 21.1119 5.31825 21.1119C4.58245 21.1119 3.87729 20.6714 3.49917 19.9666L2.79402 18.6451C2.4159 17.9293 2.39546 17.0703 2.77358 16.3875C2.93709 16.0572 3.24368 15.7268 3.59115 15.5175C3.87729 15.3634 4.06125 15.1101 4.23498 14.8128C4.74596 13.8657 4.43937 12.6213 3.57071 12.0596C2.55897 11.4319 2.23194 10.0334 2.81446 8.94313L3.49917 7.64367C4.09191 6.55344 5.35913 6.168 6.38109 6.80672C7.27019 7.33532 8.425 6.98292 8.9462 6.04687C9.10972 5.73852 9.20169 5.40815 9.18125 5.07777C9.16081 4.64829 9.27323 4.24083 9.4674 3.91046C9.84553 3.22769 10.5302 2.78719 11.2763 2.76517H12.7172C13.4735 2.76517 14.1582 3.22769 14.5363 3.91046C14.7203 4.24083 14.8429 4.64829 14.8122 5.07777C14.7918 5.40815 14.8838 5.73852 15.0473 6.04687C15.5685 6.98292 16.7233 7.33532 17.6226 6.80672C18.6344 6.168 19.9118 6.55344 20.4943 7.64367L21.179 8.94313C21.7718 10.0334 21.4447 11.4319 20.4228 12.0596C19.5541 12.6213 19.2475 13.8657 19.7687 14.8128C19.9322 15.1101 20.1162 15.3634 20.4023 15.5175ZM9.10962 13.7886C9.10962 15.5176 10.4075 16.8941 12.012 16.8941C13.6165 16.8941 14.8837 15.5176 14.8837 13.7886C14.8837 12.0597 13.6165 10.6721 12.012 10.6721C10.4075 10.6721 9.10962 12.0597 9.10962 13.7886Z" fill="#030229"/>
</g>
</svg>
