<svg width="90" height="23" viewBox="0 0 90 23" fill="none" xmlns="http://www.w3.org/2000/svg">
<path fill-rule="evenodd" clip-rule="evenodd" d="M5.33003 0H14.669C18.07 0 19.99 2.1243 20 5.86962V16.1552C20 19.8994 18.07 22.0248 14.669 22.0248H5.33003C1.92903 22.0248 3.05176e-05 19.8994 3.05176e-05 16.1552V5.86962C3.05176e-05 2.1243 1.92903 0 5.33003 0ZM10.049 17.4657C10.48 17.4657 10.839 17.1133 10.879 16.6398V5.41811C10.919 5.07672 10.77 4.73424 10.5 4.54813C10.219 4.36092 9.87903 4.36092 9.61003 4.54813C9.33903 4.73424 9.19003 5.07672 9.21903 5.41811V16.6398C9.27003 17.1133 9.62903 17.4657 10.049 17.4657ZM14.65 17.4657C15.07 17.4657 15.429 17.1133 15.48 16.6398V13.0277C15.509 12.6742 15.36 12.3449 15.089 12.1577C14.82 11.9705 14.48 11.9705 14.2 12.1577C13.929 12.3449 13.78 12.6742 13.82 13.0277V16.6398C13.86 17.1133 14.219 17.4657 14.65 17.4657ZM6.21902 16.6398C6.17902 17.1133 5.82002 17.4657 5.38902 17.4657C4.95902 17.4657 4.59902 17.1133 4.56002 16.6398V9.03018C4.53002 8.6877 4.67902 8.34741 4.95002 8.1602C5.21902 7.97299 5.56002 7.97299 5.83002 8.1602C6.09902 8.34741 6.25002 8.6877 6.21902 9.03018V16.6398Z" fill="#605BFF"/>
<path d="M41.872 16.144C41.1147 16.144 40.448 16.048 39.872 15.856C39.296 15.6533 38.8107 15.3547 38.416 14.96C38.032 14.5653 37.7387 14.0747 37.536 13.488C37.3333 12.9013 37.232 12.224 37.232 11.456V5.44C37.232 5.16267 37.3013 4.95467 37.44 4.816C37.5893 4.67733 37.7973 4.608 38.064 4.608C38.3307 4.608 38.5333 4.67733 38.672 4.816C38.8213 4.95467 38.896 5.16267 38.896 5.44V11.424C38.896 12.5227 39.1467 13.344 39.648 13.888C40.16 14.432 40.9013 14.704 41.872 14.704C42.8533 14.704 43.5947 14.432 44.096 13.888C44.5973 13.344 44.848 12.5227 44.848 11.424V5.44C44.848 5.16267 44.9173 4.95467 45.056 4.816C45.2053 4.67733 45.408 4.608 45.664 4.608C45.9307 4.608 46.1333 4.67733 46.272 4.816C46.4107 4.95467 46.48 5.16267 46.48 5.44V11.456C46.48 12.48 46.304 13.344 45.952 14.048C45.6107 14.7413 45.0987 15.264 44.416 15.616C43.7333 15.968 42.8853 16.144 41.872 16.144ZM49.6704 18.992C49.4144 18.992 49.217 18.9227 49.0784 18.784C48.9397 18.6453 48.8704 18.4427 48.8704 18.176V8.896C48.8704 8.62933 48.9397 8.42667 49.0784 8.288C49.217 8.14933 49.409 8.08 49.6544 8.08C49.9104 8.08 50.1077 8.14933 50.2464 8.288C50.385 8.42667 50.4544 8.62933 50.4544 8.896V10.288L50.2784 9.952C50.449 9.376 50.785 8.91733 51.2864 8.576C51.7877 8.224 52.3797 8.048 53.0624 8.048C53.7557 8.048 54.3584 8.21333 54.8704 8.544C55.393 8.87467 55.793 9.33867 56.0704 9.936C56.3584 10.5333 56.5024 11.2533 56.5024 12.096C56.5024 12.9173 56.3584 13.6373 56.0704 14.256C55.793 14.864 55.3984 15.3333 54.8864 15.664C54.3744 15.984 53.7664 16.144 53.0624 16.144C52.3904 16.144 51.8037 15.9733 51.3024 15.632C50.801 15.2907 50.465 14.8373 50.2944 14.272H50.4864V18.176C50.4864 18.4427 50.4117 18.6453 50.2624 18.784C50.1237 18.9227 49.9264 18.992 49.6704 18.992ZM52.6624 14.896C53.1104 14.896 53.4997 14.7893 53.8304 14.576C54.161 14.3627 54.417 14.048 54.5984 13.632C54.7797 13.216 54.8704 12.704 54.8704 12.096C54.8704 11.1787 54.6677 10.4853 54.2624 10.016C53.8677 9.54667 53.3344 9.312 52.6624 9.312C52.225 9.312 51.8357 9.41867 51.4944 9.632C51.1637 9.83467 50.9077 10.144 50.7264 10.56C50.545 10.976 50.4544 11.488 50.4544 12.096C50.4544 13.0027 50.657 13.696 51.0624 14.176C51.4677 14.656 52.001 14.896 52.6624 14.896ZM60.8355 16.144C60.0035 16.144 59.3742 15.904 58.9475 15.424C58.5315 14.9333 58.3235 14.2293 58.3235 13.312V5.424C58.3235 5.15733 58.3928 4.95467 58.5315 4.816C58.6702 4.67733 58.8675 4.608 59.1235 4.608C59.3795 4.608 59.5768 4.67733 59.7155 4.816C59.8648 4.95467 59.9395 5.15733 59.9395 5.424V13.216C59.9395 13.7493 60.0462 14.1493 60.2595 14.416C60.4835 14.672 60.8035 14.8 61.2195 14.8C61.3155 14.8 61.4008 14.8 61.4755 14.8C61.5502 14.7893 61.6248 14.7787 61.6995 14.768C61.8275 14.7573 61.9182 14.7947 61.9715 14.88C62.0248 14.9547 62.0515 15.1147 62.0515 15.36C62.0515 15.584 62.0035 15.76 61.9075 15.888C61.8115 16.0053 61.6568 16.08 61.4435 16.112C61.3475 16.1227 61.2462 16.128 61.1395 16.128C61.0328 16.1387 60.9315 16.144 60.8355 16.144ZM66.528 16.144C65.7387 16.144 65.056 15.9787 64.48 15.648C63.9147 15.3173 63.472 14.848 63.152 14.24C62.832 13.632 62.672 12.9173 62.672 12.096C62.672 11.4667 62.7627 10.9067 62.944 10.416C63.1253 9.92533 63.3813 9.504 63.712 9.152C64.0533 8.78933 64.4587 8.51733 64.928 8.336C65.408 8.144 65.9413 8.048 66.528 8.048C67.3067 8.048 67.9787 8.21333 68.544 8.544C69.12 8.87467 69.568 9.344 69.888 9.952C70.208 10.5493 70.368 11.264 70.368 12.096C70.368 12.7147 70.2773 13.2747 70.096 13.776C69.9147 14.2773 69.6533 14.704 69.312 15.056C68.9813 15.408 68.576 15.68 68.096 15.872C67.6267 16.0533 67.104 16.144 66.528 16.144ZM66.528 14.896C66.9653 14.896 67.3493 14.7893 67.68 14.576C68.0107 14.3627 68.2667 14.048 68.448 13.632C68.64 13.216 68.736 12.704 68.736 12.096C68.736 11.1787 68.5333 10.4853 68.128 10.016C67.7227 9.54667 67.1893 9.312 66.528 9.312C66.08 9.312 65.6907 9.41867 65.36 9.632C65.0293 9.83467 64.768 10.144 64.576 10.56C64.3947 10.976 64.304 11.488 64.304 12.096C64.304 13.0027 64.5067 13.696 64.912 14.176C65.3173 14.656 65.856 14.896 66.528 14.896ZM74.6789 16.144C74.1349 16.144 73.6442 16.0373 73.2069 15.824C72.7802 15.6107 72.4442 15.3227 72.1989 14.96C71.9535 14.5973 71.8309 14.1867 71.8309 13.728C71.8309 13.152 71.9749 12.6987 72.2629 12.368C72.5615 12.0267 73.0469 11.7867 73.7189 11.648C74.4015 11.4987 75.3189 11.424 76.4709 11.424H77.2229V12.416H76.4869C75.7189 12.416 75.1109 12.4533 74.6629 12.528C74.2149 12.6027 73.8949 12.7307 73.7029 12.912C73.5215 13.0827 73.4309 13.3227 73.4309 13.632C73.4309 14.0373 73.5695 14.368 73.8469 14.624C74.1242 14.8693 74.5082 14.992 74.9989 14.992C75.3935 14.992 75.7402 14.9013 76.0389 14.72C76.3375 14.528 76.5722 14.272 76.7429 13.952C76.9242 13.632 77.0149 13.264 77.0149 12.848V11.008C77.0149 10.4 76.8869 9.96267 76.6309 9.696C76.3749 9.42933 75.9535 9.296 75.3669 9.296C75.0255 9.296 74.6682 9.33867 74.2949 9.424C73.9322 9.50933 73.5535 9.65333 73.1589 9.856C72.9775 9.94133 72.8229 9.968 72.6949 9.936C72.5669 9.904 72.4655 9.83467 72.3909 9.728C72.3162 9.61067 72.2735 9.488 72.2629 9.36C72.2629 9.22133 72.2949 9.088 72.3589 8.96C72.4335 8.832 72.5562 8.736 72.7269 8.672C73.1962 8.448 73.6602 8.288 74.1189 8.192C74.5775 8.096 75.0095 8.048 75.4149 8.048C76.1295 8.048 76.7162 8.16 77.1749 8.384C77.6442 8.608 77.9909 8.94933 78.2149 9.408C78.4389 9.86667 78.5509 10.4587 78.5509 11.184V15.296C78.5509 15.552 78.4869 15.7547 78.3589 15.904C78.2309 16.0427 78.0442 16.112 77.7989 16.112C77.5642 16.112 77.3775 16.0427 77.2389 15.904C77.1002 15.7547 77.0309 15.552 77.0309 15.296V14.256H77.1749C77.0895 14.6507 76.9295 14.992 76.6949 15.28C76.4709 15.5573 76.1882 15.7707 75.8469 15.92C75.5055 16.0693 75.1162 16.144 74.6789 16.144ZM83.7526 16.144C83.07 16.144 82.4673 15.984 81.9446 15.664C81.4326 15.3333 81.0326 14.864 80.7446 14.256C80.4566 13.6373 80.3126 12.9173 80.3126 12.096C80.3126 11.2533 80.4566 10.5333 80.7446 9.936C81.0326 9.33867 81.4326 8.87467 81.9446 8.544C82.4673 8.21333 83.07 8.048 83.7526 8.048C84.4353 8.048 85.022 8.21867 85.5126 8.56C86.014 8.89067 86.35 9.33867 86.5206 9.904H86.3446V5.424C86.3446 5.15733 86.414 4.95467 86.5526 4.816C86.6913 4.67733 86.8886 4.608 87.1446 4.608C87.4006 4.608 87.598 4.67733 87.7366 4.816C87.886 4.95467 87.9606 5.15733 87.9606 5.424V15.296C87.9606 15.552 87.8913 15.7547 87.7526 15.904C87.614 16.0427 87.4166 16.112 87.1606 16.112C86.9046 16.112 86.7073 16.0427 86.5686 15.904C86.43 15.7547 86.3606 15.552 86.3606 15.296V13.888L86.5366 14.24C86.366 14.816 86.03 15.28 85.5286 15.632C85.038 15.9733 84.446 16.144 83.7526 16.144ZM84.1686 14.896C84.606 14.896 84.99 14.7893 85.3206 14.576C85.6513 14.3627 85.9073 14.048 86.0886 13.632C86.2806 13.216 86.3766 12.704 86.3766 12.096C86.3766 11.1787 86.174 10.4853 85.7686 10.016C85.3633 9.54667 84.83 9.312 84.1686 9.312C83.7206 9.312 83.3313 9.41867 83.0006 9.632C82.67 9.83467 82.4086 10.144 82.2166 10.56C82.0353 10.976 81.9446 11.488 81.9446 12.096C81.9446 13.0027 82.1473 13.696 82.5526 14.176C82.958 14.656 83.4966 14.896 84.1686 14.896Z" fill="#605BFF"/>
</svg>
